<?xml version="1.0" encoding="utf-8"?>
<!-- Generator: Adobe Illustrator 26.1.0, SVG Export Plug-In . SVG Version: 6.00 Build 0)  -->
<svg version="1.1" id="Layer_1" xmlns="http://www.w3.org/2000/svg" xmlns:xlink="http://www.w3.org/1999/xlink" x="0px" y="0px"
	 viewBox="0 0 1080 257" style="enable-background:new 0 0 1080 257;" xml:space="preserve">
<style type="text/css">
	.st0{fill:#F16587;}
	.st1{fill:none;}
	.st2{fill:none;stroke:#D9B384;stroke-width:1.2611;stroke-miterlimit:10;}
	.st3{fill:#D9B384;}
	.st4{fill:#EAD450;}
	.st5{fill:none;stroke:#EAD450;stroke-width:3.0457;stroke-linecap:round;stroke-linejoin:round;stroke-miterlimit:10;}
	.st6{fill:#E7E2A7;}
	.st7{fill:#CEBC47;}
	.st8{fill:#8FD4D8;}
	.st9{fill:#31BCB1;}
	.st10{fill:#FFFFFF;}
	.st11{fill:#DA5B7B;}
	.st12{fill:none;stroke:#FFFFFF;stroke-width:2.1738;stroke-linecap:round;stroke-linejoin:round;stroke-miterlimit:10;}
	.st13{fill:none;stroke:#FFFFFF;stroke-width:1.0258;stroke-miterlimit:10;}
	.st14{fill:none;stroke:#D9B384;stroke-width:0.7386;stroke-miterlimit:10;}
</style>
<g>
	<rect x="-9" y="-12" class="st0" width="1102" height="268.54"/>
	<g>
		<path class="st1" d="M927.43,185.14c4.67-3.9,6.36-10.28,7.19-16.3c0.83-6.02,1.11-12.31,3.88-17.72"/>
		<path class="st2" d="M907.26,209.27c-1.82,2.89-3.54,5.95-4.08,9.33c-1.38,8.59,5.25,16.59,12.82,20.85
			c1.5,0.84,3.07,1.6,4.77,1.87c4.58,0.73,8.87-2.17,12.59-4.94c1.77-1.32,3.57-2.67,4.87-4.45c2.67-3.65,2.86-8.58,2.06-13.03
			c-1.3-7.16-6.42-18.67-13.75-21.76C918.1,193.57,911.23,202.97,907.26,209.27z"/>
		<path class="st3" d="M909.45,210.71c-1.55,2.46-3.01,5.06-3.47,7.93c-1.17,7.3,4.46,14.1,10.9,17.73
			c1.27,0.72,2.61,1.36,4.05,1.59c3.89,0.62,7.54-1.85,10.7-4.2c1.51-1.12,3.03-2.27,4.14-3.78c2.27-3.1,2.43-7.3,1.75-11.08
			c-1.1-6.09-5.46-15.87-11.69-18.5C918.66,197.37,912.82,205.36,909.45,210.71z"/>
		<path class="st2" d="M935.64,171.55c2.45-9.25,6.87-18.99,15.58-22.95c2.6-1.18,5.69-1.75,8.31-0.59
			c1.85,0.82,3.27,2.43,4.15,4.25c1.51,3.11,1.51,6.91,0,10.02c-1.26,2.59-3.42,4.6-5.54,6.55c-5.9,5.42-12.73,11.03-18.8,16.44
			c-3.55,3.17-5.47,3.31-6.45,3.86C932.69,189.24,934.32,176.57,935.64,171.55z"/>
		<path class="st2" d="M935.67,137.27c-0.88-2.37-2.31-4.64-4.5-5.91c-4.76-2.77-11.22,0.49-13.77,5.37s-2.24,10.72-1.71,16.2
			c0.38,3.89,2.48,15.07,3.77,21.33c0.76,3.7,2.05,24.5,8.97-0.1C931.38,163.75,939.03,146.33,935.67,137.27z"/>
		<path class="st2" d="M910.29,167.55c-1.28-5.04-3.25-9.81-6.18-13.77c-3.01-4.05-7.68-7.19-12.73-7.14
			c-4.49,0.05-7.22,3.28-7.47,7.73c-0.55,9.78,6.25,13.76,12.87,19.26c3.12,2.59,5.69,5.72,8.48,8.62c0.53,0.55,7.21,6.63,7.21,5.31
			C912.49,181.29,911.98,174.19,910.29,167.55z"/>
		<g>
			<path class="st3" d="M872.3,179.71c-4.48,0.71-5.68,7.25-2.14,9.86c3.23,2.69,8.54,2.29,11.35-0.79c1.83-2.06,2.5-5.01,2.27-7.74
				c-2.21-17.21-25.4-15.66-28.33,0.35c-2.68,15.19,13.27,24.16,25.3,29.02c5.29,2.12,10.77,3.8,16.22,5.55l-0.04,0.16
				c-13.81-3.29-28.82-7.21-38.59-18.28c-5.92-6.75-6.54-17.84-0.47-24.7c5.87-6.83,17.86-7.83,23.52-0.27
				c3.7,4.5,4.69,11.78,0.6,16.37c-3.98,4.41-13.18,3.24-14.21-3.14c-0.37-2.87,1.46-6.19,4.49-6.55
				C872.29,179.54,872.3,179.71,872.3,179.71L872.3,179.71z"/>
		</g>
		<g>
			<path class="st3" d="M971.53,182.9c3.03,0.37,4.86,3.69,4.49,6.55c-0.35,3.03-3.21,5.15-6.05,5.64
				c-6.65,1.24-11.35-4.38-10.78-10.76c1.33-13.96,17.78-17.76,26.74-7.84c6.07,6.86,5.46,17.96-0.47,24.7
				c-9.78,11.08-24.78,14.99-38.59,18.28c0,0-0.04-0.16-0.04-0.16c5.46-1.76,10.94-3.43,16.22-5.55
				c12.03-4.85,27.98-13.83,25.3-29.02c-2.93-16.01-26.11-17.57-28.33-0.35c-0.23,2.73,0.44,5.68,2.27,7.74
				c2.81,3.08,8.12,3.47,11.35,0.79c3.54-2.6,2.34-9.15-2.14-9.86C971.51,183.07,971.53,182.9,971.53,182.9L971.53,182.9z"/>
		</g>
		<g>
			<path class="st3" d="M888.09,194.09c-1.12-0.54-2.56-0.36-3.51,0.44c-1.26,1.07-1.49,3.11-0.59,4.49"/>
			<path class="st3" d="M884.16,199.26c0.98,1.24,2.79,1.74,4.3,1.24c2.07-0.7,3.3-3.31,2.4-5.31c-0.9-1.99-3.82-2.76-5.52-1.37"/>
			<g>
				<path class="st3" d="M883.69,196.17c-1.65,4.56,1.78,9.05,5.72,11.04c1.99,1.09,4.23,1.73,6.36,2.69
					c2.13,0.93,4.2,1.8,6.51,2.32l0,0.17c-5.89,0.85-15.93-3.75-18.52-9.27c-1.04-2.18-1.31-4.85-0.21-7.01L883.69,196.17
					L883.69,196.17z"/>
			</g>
		</g>
		<g>
			<path class="st3" d="M899.69,185.46c-0.8-0.96-2.18-1.38-3.38-1.03c-1.59,0.46-2.63,2.22-2.38,3.85"/>
			<path class="st3" d="M893.99,188.57c0.38,1.53,1.83,2.73,3.41,2.89c2.18,0.22,4.37-1.67,4.36-3.86
				c-0.01-2.19-2.36-4.08-4.47-3.51"/>
			<g>
				<path class="st3" d="M894.82,185.56c-3.37,3.48-2.09,8.99,0.69,12.41c1.37,1.81,3.15,3.31,4.7,5.06
					c1.56,1.72,3.09,3.36,4.99,4.78c0,0-0.07,0.15-0.07,0.15c-5.7-1.62-13.01-9.97-13.1-16.05c-0.05-2.42,0.79-4.96,2.68-6.48
					L894.82,185.56L894.82,185.56z"/>
			</g>
		</g>
		<g>
			<path class="st3" d="M957.68,197.66c1.15-0.49,2.57-0.25,3.49,0.6c1.21,1.12,1.35,3.17,0.39,4.51"/>
			<path class="st3" d="M961.37,203.01c-1.03,1.2-2.87,1.62-4.35,1.05c-2.04-0.79-3.15-3.46-2.16-5.41
				c0.99-1.95,3.94-2.58,5.57-1.12"/>
			<g>
				<path class="st3" d="M962.14,199.88c2.04,4.72-1.58,9.86-5.73,12.02c-4.19,2.26-8.89,4.23-13.72,3.4c0,0,0-0.17,0-0.17
					c2.33-0.41,4.44-1.19,6.61-2.02c4.21-1.55,9.07-2.62,11.58-6.67c1.22-1.86,1.86-4.28,1.1-6.5L962.14,199.88L962.14,199.88z"/>
			</g>
		</g>
		<g>
			<path class="st3" d="M945.69,188.82c0.8-0.96,2.18-1.38,3.38-1.03c1.59,0.46,2.63,2.22,2.38,3.85"/>
			<path class="st3" d="M951.39,191.93c-0.38,1.53-1.83,2.73-3.41,2.89c-2.18,0.22-4.37-1.67-4.36-3.86s2.36-4.08,4.47-3.51"/>
			<g>
				<path class="st3" d="M950.67,188.79c3.95,3.3,3.03,9.51,0.3,13.31c-2.73,3.91-6.04,7.78-10.72,9.21c0,0-0.07-0.15-0.07-0.15
					c1.9-1.42,3.43-3.06,4.99-4.78c3.06-3.28,6.92-6.42,7.34-11.17c0.25-2.21-0.27-4.66-1.95-6.3
					C950.56,188.92,950.67,188.79,950.67,188.79L950.67,188.79z"/>
			</g>
		</g>
	</g>
	<g>
		<g>
			<path class="st4" d="M391.29,149.48c1.18,8.35,12.05,23.79,19.25,28.26c3.67,2.28,8.12,2.99,12.45,3.04
				c7.21,0.09,14.64-1.61,20.36-5.98c10.02-7.66,5.9-17.38,10.41-27.21c3.7-8.06,13.56-10.85,22.23-12.71
				c24.55-5.28,49.44-10.5,74.53-9.49c6.86,0.28,14.47,1.41,18.8,6.74c3.26,4.01,3.95,9.63,7.1,13.73
				c5.87,7.66,17.83,7.11,26.59,3.07c9.68-4.46,18.2-13.17,19.1-23.79c0.99-11.74-7.7-22.6-18.27-27.8
				c-10.58-5.2-22.72-5.91-34.5-6.38c-34.7-1.36-69.87-1.17-104.05,5.69c-25.19,5.05-74.32,14.74-74.3,48.3L391.29,149.48z"/>
			<path class="st5" d="M312.14,189.94c-0.9-10.84-1.14-22.91,5.91-31.2c8.66-10.18,25.23-9.66,33.4,0.9
				c3.02,3.91,4.6,9.46,2.3,13.83c-0.55,1.04-1.34,2.01-2.42,2.47c-2.83,1.22-5.86-1.5-7.12-4.32c-8.04-18.03,18.8-31.27,27.5-13.99
				c1.89,3.76,1.71,9.18-1.94,11.28c-4.79,2.75-8.21-11.09-8.1-13.36c0.54-10.73,26.89-25.83,28.92-11.47"/>
			<g>
				<path class="st6" d="M564.08,114.89c-35.76,1.02-71.66,3.55-106.36,12.71C489.79,114.61,529.78,111.57,564.08,114.89
					L564.08,114.89z"/>
			</g>
		</g>
		<g>
			<path class="st7" d="M611.55,135.53c-9.59,4.65-23.2,4.29-32.84-0.09c0,0,0.03-0.3,0.03-0.3c8.19,0.53,16.39,0.82,24.59,0.58
				c2.73-0.11,5.47-0.23,8.18-0.49C611.51,135.23,611.55,135.53,611.55,135.53L611.55,135.53z"/>
		</g>
		<g>
			<path class="st7" d="M442.59,159.42c-9.61,4.89-21.3,5.1-31.42,1.75c-3.42-1.13-6.65-2.93-9.39-5.27c0,0,0.13-0.28,0.13-0.28
				c0.9,0.34,2.74,1.1,3.6,1.42c8.56,2.96,17.74,3.77,26.75,3.29c3.44-0.22,6.88-0.57,10.26-1.22
				C442.52,159.12,442.59,159.42,442.59,159.42L442.59,159.42z"/>
		</g>
	</g>
	<g>
		<path class="st8" d="M1037.47,62.41c2.97,0.76,6.2-0.85,8-3.33c1.81-2.48,2.4-5.66,2.44-8.73c0.04-2.63-0.3-5.27-0.99-7.81
			c-1.42-5.23-4.37-10.36-3.47-15.7c0.21-1.26,0.64-2.49,0.58-3.77c-0.11-2.6-2.14-4.66-4.04-6.44c-2.55-2.4-5.1-4.8-7.65-7.2
			c-1.72-1.62-3.72-3.34-6.08-3.24c-4.82,0.22-6.54,7.48-11.28,8.42c-7.58,1.51-15.76,0.27-23.46-0.46
			c-2.89-0.27-5.94-0.61-8.59,0.56c-2.89,1.27-4.81,4.16-5.68,7.2c-0.87,3.04-0.83,6.25-0.78,9.4c-0.1-0.17-0.27-0.15-0.37,0.02
			c-0.61,0.96-1.83,1.83-2.74,2.51c-1.45,1.08-1.91,3.03-2.1,4.83c-0.19,1.84-0.19,3.69-0.01,5.53c0.07,0.77,0.22,1.6,0.8,2.1
			c0.44,0.37,1.03,0.49,1.6,0.56c2.11,0.27,4.26,0.2,6.34-0.2c-2.64,0.75-4.78,2.98-5.91,5.48c-1.13,2.5-1.26,5.38-0.64,8.05
			c0.14,0.61,0.33,1.23,0.75,1.68c0.53,0.58,1.34,0.79,2.11,0.99c2.3,0.58,4.74,1.15,7.02,0.49c2.12-0.61,3.79-2.19,5.38-3.73
			c-2.02,2.26-4.72,4.95-5.07,7.96c-0.22,1.89,0.31,3.81,1.25,5.47c2.15,3.8,6.55,6.21,10.91,5.97c0.66-0.04,1.33-0.13,1.93-0.42
			c2-0.96,2.47-3.53,2.69-5.74c-0.32,1.64-0.82,3.55-1.14,5.19c-0.26,1.36-0.44,3,0.61,3.9c0.45,0.39,1.05,0.56,1.63,0.7
			c3.18,0.78,6.45,1.18,9.73,1.21c2.34,0.02,4.73-0.17,6.86-1.14c2.12-0.97,3.94-2.86,4.31-5.17c-0.46,0.55-0.13,1.53,0.45,1.95
			s1.34,0.5,2.05,0.56c2.01,0.17,4.05,0.34,6.02-0.04c1.98-0.38,3.93-1.39,4.98-3.1c0.92-1.49,1.08-3.32,1.17-5.07
			C1037.27,68.47,1037.58,65.83,1037.47,62.41z"/>
		<g>
			<g>
				<path class="st9" d="M1037.02,62.81c6.16,1.03,9.84-5.38,9.73-10.82c0.11-2.78-0.22-5.59-0.95-8.27
					c-1.11-4.08-3.28-8.07-3.91-12.4c-0.21-1.51-0.18-3.09,0.1-4.62c0.31-1.5,0.65-2.71,0.37-3.79c-0.61-2.5-2.97-4.29-4.84-6.09
					c0,0-3.15-2.92-3.15-2.92l-3.15-2.92c-3.07-3.02-5.97-4.62-9.18-0.76c-2.01,2.17-3.71,5.03-6.93,5.89
					c-3.01,0.65-5.89,0.8-8.82,0.78c-5.78-0.04-11.47-1.04-17.17-1.61c-6.23-0.97-10.61,1.99-12.17,8.06
					c-0.78,2.72-0.66,5.75-0.94,8.53c-0.38-5.45,0.06-12.26,4.88-15.87c2.37-1.77,5.47-1.87,8.3-1.63c2.86,0.24,5.7,0.56,8.55,0.83
					c5.67,0.52,11.47,0.89,17.06-0.31c1.36-0.36,2.51-1.27,3.47-2.31c1.97-2.02,3.44-4.83,6.27-5.8c2.97-1.01,5.64,1.29,7.62,3.2
					c0,0,3.12,2.94,3.12,2.94c1.79,1.79,4.52,4.09,6.19,5.96c0.94,1.08,1.8,2.32,2.1,3.76c0.34,1.46-0.12,2.91-0.4,4.28
					c-0.57,2.8-0.03,5.69,0.83,8.4c1.87,5.37,4,10.89,3.48,16.7c-0.2,4.22-2.04,8.92-6.25,10.55c-1.33,0.54-2.84,0.72-4.25,0.36
					C1036.9,62.93,1036.93,62.79,1037.02,62.81L1037.02,62.81z"/>
			</g>
			<g>
				<path class="st9" d="M997.02,22.2c-6.68,3.62-13.4,7.07-20.06,10.65c-4.19,2.02-5.63,3.19-5.79,8.01
					c-0.28,2.79-0.02,5.81,3.42,6.02c0.92,0.08,1.87,0.01,2.82-0.08c-0.92,0.24-1.86,0.44-2.83,0.45c-3.87,0.17-4.67-3.28-4.49-6.43
					c-0.12-5.17,1.69-7.04,6.22-9.2C983.01,28.07,989.89,24.83,997.02,22.2L997.02,22.2z"/>
			</g>
			<g>
				<path class="st9" d="M1007.69,27.39c-8.21,5.65-19.67,14.42-27.75,20.49c-3.28,2.45-6.52,5.7-6.23,9.98
					c0.31,4.27,5.12,6.61,9.07,5.71c2.76-0.52,5.23-2.18,7.31-4.15c-1.86,2.19-4.27,4.03-7.16,4.81c-4.3,1.25-10.04-1.37-10.44-6.26
					c-0.51-4.75,3.16-8.65,6.6-11.19C988.33,39.89,997.65,33.07,1007.69,27.39L1007.69,27.39z"/>
			</g>
			<g>
				<path class="st9" d="M1016.61,32.15c-8.29,9.07-17.28,18.28-25.93,26.99c0,0-3.31,3.3-3.31,3.3c-2.12,2.02-4.36,4.34-3.39,7.43
					c0.8,2.93,3.34,4.92,5.71,6.72c4.74,3.81,8.12,3.29,10.53-2.46c-1.97,6.27-6.03,6.95-11.05,3.17c-3.25-2.17-7-5.25-6.64-9.64
					c0.19-2.56,2.25-4.55,3.88-6.18c0,0,3.29-3.32,3.29-3.32C998.38,49.49,1007.58,40.47,1016.61,32.15L1016.61,32.15z"/>
			</g>
			<g>
				<path class="st9" d="M1019.92,38.62c-6.67,10.18-12.58,20.86-17.41,32.02c-1.21,2.77-2.29,5.59-2.56,8.51
					c-0.06,0.75-0.12,1.46,0.16,1.75c0.28,0.37,1.06,0.69,1.7,1.02c4.06,1.87,8.72,2.34,13.09,1.29c2.67-0.72,6.41-1.7,6.98-4.85
					c-0.01,0.77-0.32,1.52-0.8,2.13c-1.51,1.81-3.82,2.66-6,3.38c-4.48,1.27-9.46,1.03-13.76-0.84c-2.12-0.89-2.95-1.55-2.67-3.99
					c0.25-3.18,1.39-6.15,2.6-8.96C1006.14,58.89,1012.35,48.23,1019.92,38.62L1019.92,38.62z"/>
			</g>
			<g>
				<path class="st9" d="M1025.81,38.87c-3.43,12.62-2.9,25.75-2.47,38.68c0.02,1.04,0.21,1.36,1.08,1.55
					c4.28,0.35,10.43,0.37,12.47-4.22c0.34-0.83,0.46-1.76,0.5-2.72c0.02-3.93-0.2-7.96-0.35-11.94
					c-0.38-7.99-1.13-15.95-2.06-23.89c2.22,11.84,3.49,23.81,3.68,35.87c0.19,6.21-6.05,8.74-11.37,8.38
					c-2.3-0.06-5.33,0.24-5.22-2.99C1021.7,64.64,1021.51,51.26,1025.81,38.87L1025.81,38.87z"/>
			</g>
		</g>
	</g>
	<g>
		<path class="st10" d="M59.79,159.16c1.55-2.58,4.29-4.16,6.63-6.06c4.04-3.29,7.05-7.83,8.52-12.83
			c-1.02,4.27-1.27,8.69-2.12,12.99c-0.85,4.31-2.39,8.65-5.5,11.75c3.65-2.29,8.32-1.55,12.63-1.53
			c5.09,0.02,10.17-1.11,14.77-3.28c-5.23,2.89-8.98,8.36-19.43,11.21c2.63-0.31,9.73,0.5,12.34,0.95c1.88,0.32,5.12,2.67,6.65,3.8
			c0,0,3.79,4.83,8.31,5.87c-13.06-0.17-11.16,0.78-17.8-1.12c-4.78-1.37-5.7,0-13.83-3.47c4.47,2.98,6.51,8.38,8.65,13.31
			c2.14,4.93,5.12,10.15,10.24,11.78c-2.87,1.8-6.74,0.46-9.36-1.68s-4.61-5.03-7.41-6.93c-1.75-1.19-3.75-1.94-5.55-3.06
			s-3.46-2.72-3.87-4.79c-0.21,6.06,2.14,7.19-0.63,18.19c-1.01,4.02,2.17,9.31,0.87,12.75c0.37-3.38-2.93-6.42-4.96-9.15
			c-3.21-4.3-4.68-13.13-3.59-18.39c-3.37,2.82-4.75,5.7-11.85,8.2c-4.14,1.46-8.59,3.32-10.56,7.25c1.92-3.18,0.66-7.46,2.47-10.7
			c2.29-4.09,8.81-7.7,9.5-12.34c-3.8,0.95-4.33,1.9-14.24,1.9c-3.8,0-9.41,1.68-12.69,1.08c4.67-2.07,8.89-3.93,11.74-7.72
			c3-4,8.41-3.53,13.29-3.8c-3.25-2.28-6.79-0.33-10.45-1.9c-6.65-2.85-5.7-3.8-8.28-6.23c-1.02-0.96-2.37-1.18-3.39-2.19
			c-0.55-0.55-1.8-3.39-2.2-3.55c3.89,1.57,8.14,2.26,12.33,2.03c1.92-0.11,3.85-0.41,5.76-0.24c1.89,0.17,3.49,0.9,4.9,2.13
			c-0.65-1.24-2.2-1.77-3.21-2.72c-1.08-1.02-1.64-2.5-1.82-3.97c-0.35-2.84,0.04-5.98,0.05-8.85c0.01-1.74,0.01-3.49,0.02-5.23
			c0-0.91,0.54-4.11,0.02-4.79c2.46,3.23,0.34,4.47,1.73,6.21c1.39,1.75,3.22,3.09,4.79,4.68c4.12,4.17,6.33,9.82,8.06,15.42
			c1.83-9.65-1.92-19.52-1.39-29.32c-0.16,2.98,1.98,4.69,3.54,6.99c2.43,3.6,5.29,8.05,5.42,12.49c0.05,1.83,0.34,3.65,0.85,5.41
			C60.4,159.62,59.14,159.22,59.79,159.16z"/>
		<path class="st11" d="M58.11,179.91c-2.95,1.26-6.58,0.92-8.72-1.76c-3.17-3.96-0.56-9.39,3.79-10.95
			c5.47-1.96,11.31,1.75,9.38,8.02C61.89,177.38,60.16,179.03,58.11,179.91z"/>
	</g>
	<g>
		<path class="st8" d="M659.04,26.73c1.36-2.75,0.45-6.24-1.6-8.52s-5.04-3.52-8.03-4.2c-2.57-0.58-5.21-0.8-7.84-0.65
			c-5.41,0.31-11.04,2.13-16.08,0.14c-1.18-0.47-2.31-1.14-3.56-1.35c-2.57-0.43-5,1.13-7.14,2.61c-2.88,2-5.75,4-8.63,6
			c-1.94,1.35-4.04,2.94-4.43,5.27c-0.79,4.76,5.96,7.95,5.9,12.78c-0.1,7.73-3,15.48-5.31,22.86c-0.87,2.77-1.83,5.68-1.23,8.52
			c0.65,3.09,3.08,5.57,5.87,7.05s5.94,2.1,9.04,2.71c-0.19,0.07-0.2,0.23-0.06,0.37c0.81,0.8,1.41,2.17,1.89,3.2
			c0.76,1.64,2.57,2.5,4.29,3.05c1.76,0.56,3.57,0.95,5.4,1.16c0.76,0.09,1.61,0.12,2.22-0.35c0.46-0.35,0.69-0.91,0.88-1.45
			c0.7-2.01,1.08-4.12,1.12-6.25c0.19,2.74,1.92,5.3,4.13,6.92c2.21,1.62,5.01,2.35,7.75,2.3c0.62-0.01,1.27-0.07,1.8-0.39
			c0.68-0.4,1.06-1.15,1.4-1.86c1.04-2.13,2.11-4.4,1.94-6.76c-0.16-2.2-1.36-4.17-2.53-6.04c1.79,2.45,3.86,5.64,6.74,6.61
			c1.8,0.6,3.79,0.49,5.61-0.09c4.17-1.31,7.43-5.12,8.1-9.44c0.1-0.65,0.15-1.33-0.01-1.97c-0.52-2.15-2.95-3.15-5.05-3.82
			c1.54,0.65,3.31,1.54,4.85,2.19c1.27,0.54,2.84,1.05,3.95,0.21c0.48-0.36,0.76-0.91,1.02-1.45c1.42-2.95,2.49-6.07,3.2-9.26
			c0.5-2.28,0.82-4.67,0.3-6.94c-0.51-2.28-1.98-4.45-4.16-5.29c0.45,0.56,1.47,0.45,2-0.03c0.53-0.48,0.77-1.2,0.97-1.89
			c0.58-1.93,1.17-3.89,1.21-5.9s-0.55-4.13-2-5.52c-1.27-1.21-3.03-1.74-4.72-2.19C664.92,28.19,662.4,27.34,659.04,26.73z"/>
		<g>
			<g>
				<path class="st9" d="M659.33,27.26c2.28-5.81-3.22-10.74-8.57-11.77c-2.7-0.68-5.52-0.94-8.29-0.78
					c-4.22,0.24-8.57,1.54-12.94,1.26c-1.52-0.11-3.06-0.46-4.5-1.06c-1.4-0.61-2.52-1.2-3.63-1.15c-2.57,0.08-4.81,2.02-6.96,3.48
					c0,0-3.51,2.47-3.51,2.47l-3.51,2.47c-1.96,1.41-4.37,3.01-4.14,5.54c0.31,2.52,2.66,4.52,4.09,6.73
					c2.93,3.68,1.43,9.17,0.67,13.34c-1.23,5.65-3.4,11.01-5.13,16.47c-0.86,2.65-1.39,5.43-0.32,7.9
					c2.24,5.35,8.54,7.08,13.79,8.28c0.09,0.01,0.06,0.16-0.03,0.14c-5.46-0.98-11.89-2.6-14.43-8.12c-1.24-2.69-0.7-5.74,0.12-8.45
					c0.82-2.74,1.73-5.46,2.58-8.19c1.68-5.44,3.25-11.04,3.23-16.75c-0.07-1.4-0.72-2.72-1.54-3.87c-1.57-2.35-4.01-4.36-4.38-7.33
					c-0.38-3.11,2.43-5.25,4.71-6.79c0,0,3.53-2.45,3.53-2.45c2.12-1.38,4.94-3.57,7.12-4.82c1.25-0.7,2.64-1.28,4.11-1.27
					c1.5-0.03,2.82,0.72,4.11,1.28c2.62,1.14,5.56,1.21,8.39,0.93c5.65-0.72,11.48-1.66,17.06,0.06c4.09,1.07,8.3,3.85,9.03,8.3
					c0.25,1.42,0.11,2.93-0.53,4.23C659.42,27.4,659.29,27.34,659.33,27.26L659.33,27.26z"/>
			</g>
			<g>
				<path class="st9" d="M611.32,57.98c2.16,7.28,4.14,14.58,6.27,21.84c1.1,4.52,1.95,6.17,6.63,7.33c2.67,0.85,5.68,1.23,6.6-2.09
					c0.27-0.89,0.4-1.83,0.5-2.77c0.05,0.95,0.05,1.91-0.14,2.86c-0.64,3.82-4.17,3.89-7.22,3.06c-5.08-0.95-6.53-3.11-7.71-7.99
					C614.16,72.91,612.41,65.5,611.32,57.98L611.32,57.98z"/>
			</g>
			<g>
				<path class="st9" d="M618.6,48.61c3.83,9.2,10.03,22.23,14.3,31.39c1.21,2.55,2.62,5.05,4.82,6.64
					c5.09,3.96,11.12-0.12,11.12-6.16c0.07-2.81-1.05-5.57-2.54-8.01c1.75,2.27,3.05,5.02,3.22,8c0.28,6.91-6.6,11.64-12.56,7.24
					c-2.54-1.8-4.05-4.52-5.31-7.11C626.82,70.14,622.08,59.61,618.6,48.61L618.6,48.61z"/>
			</g>
			<g>
				<path class="st9" d="M625.11,40.87c7.15,9.99,14.31,20.69,21.03,30.96c0,0,2.54,3.93,2.54,3.93c1.54,2.49,3.34,5.16,6.57,4.86
					c3.03-0.17,5.51-2.25,7.75-4.19c4.71-3.84,4.9-7.26-0.22-10.82c5.73,3.22,5.55,7.33,0.81,11.47c-2.79,2.73-6.59,5.76-10.8,4.5
					c-2.47-0.71-3.99-3.14-5.24-5.08c0,0-2.57-3.91-2.57-3.91C638.29,62.3,631.38,51.44,625.11,40.87L625.11,40.87z"/>
			</g>
			<g>
				<path class="st9" d="M632.12,38.98c8.58,8.63,17.8,16.63,27.72,23.67c2.45,1.76,4.99,3.4,7.8,4.27
					c0.72,0.22,1.41,0.42,1.74,0.21c0.42-0.19,0.9-0.89,1.35-1.45c3.57-4.77,4.89-11.2,3.38-16.99c-0.42-1.41-1.21-2.89-2.7-3.38
					c0.75,0.17,1.42,0.63,1.92,1.23c1.45,1.85,1.81,4.29,2.06,6.57c0.32,4.65-0.95,9.47-3.67,13.28c-1.31,1.89-2.12,2.57-4.45,1.79
					c-3.06-0.9-5.72-2.64-8.22-4.4C649.09,56.66,639.95,48.38,632.12,38.98L632.12,38.98z"/>
			</g>
			<g>
				<path class="st9" d="M633.58,33.27c11.63,5.97,24.59,8.17,37.33,10.43c2.12,0.64,1.98-2.04,2.45-3.51
					c0.6-2.73,0.91-5.83-0.48-8.31c-0.89-1.69-2.49-2.62-4.33-3.03c-3.84-0.83-7.83-1.45-11.75-2.13c-7.89-1.28-15.84-2.2-23.8-2.93
					c8.01,0.15,16.01,0.83,23.96,1.87c3.99,0.51,7.91,1.16,11.9,1.96c1.01,0.24,2.04,0.58,2.97,1.2c3.78,2.55,3.89,7.71,2.87,11.67
					c-0.53,2.23-0.87,5.27-4.01,4.49C657.94,42.63,644.82,40.04,633.58,33.27L633.58,33.27z"/>
			</g>
		</g>
	</g>
	<g>
		<path class="st10" d="M359.85,70.76c2.97,0.76,6.2-0.85,8-3.33c1.81-2.48,2.4-5.66,2.44-8.73c0.04-2.63-0.3-5.27-0.99-7.81
			c-1.42-5.23-4.37-10.36-3.47-15.7c0.21-1.26,0.64-2.49,0.58-3.77c-0.11-2.6-2.14-4.66-4.04-6.44c-2.55-2.4-5.1-4.8-7.65-7.2
			c-1.72-1.62-3.72-3.34-6.08-3.24c-4.82,0.22-6.54,7.48-11.28,8.42c-7.58,1.51-15.76,0.27-23.46-0.46
			c-2.89-0.27-5.94-0.61-8.59,0.56c-2.89,1.27-4.81,4.16-5.68,7.2c-0.87,3.04-0.83,6.25-0.78,9.4c-0.1-0.17-0.27-0.15-0.37,0.02
			c-0.61,0.96-1.83,1.83-2.74,2.51c-1.45,1.08-1.91,3.03-2.1,4.83c-0.19,1.84-0.19,3.69-0.01,5.53c0.07,0.77,0.22,1.6,0.8,2.1
			c0.44,0.37,1.03,0.49,1.6,0.56c2.11,0.27,4.26,0.2,6.34-0.2c-2.64,0.75-4.78,2.98-5.91,5.48c-1.13,2.5-1.26,5.38-0.64,8.05
			c0.14,0.61,0.33,1.23,0.75,1.68c0.53,0.58,1.34,0.79,2.11,0.99c2.3,0.58,4.74,1.15,7.02,0.49c2.12-0.61,3.79-2.19,5.38-3.73
			c-2.02,2.26-4.72,4.95-5.07,7.96c-0.22,1.89,0.31,3.81,1.25,5.47c2.15,3.8,6.55,6.21,10.91,5.97c0.66-0.04,1.33-0.13,1.93-0.42
			c2-0.96,2.47-3.53,2.69-5.74c-0.32,1.64-0.82,3.55-1.14,5.19c-0.26,1.36-0.44,3,0.61,3.9c0.45,0.39,1.05,0.56,1.63,0.7
			c3.18,0.78,6.45,1.18,9.73,1.21c2.34,0.02,4.73-0.17,6.86-1.14c2.12-0.97,3.94-2.86,4.31-5.17c-0.46,0.55-0.13,1.53,0.45,1.95
			c0.58,0.42,1.34,0.5,2.05,0.56c2.01,0.17,4.05,0.34,6.02-0.04c1.98-0.38,3.93-1.39,4.98-3.1c0.92-1.49,1.08-3.32,1.17-5.07
			C359.65,76.82,359.96,74.18,359.85,70.76z"/>
		<g>
			<g>
				<path class="st0" d="M359.4,71.16c6.16,1.03,9.84-5.38,9.73-10.82c0.11-2.78-0.22-5.59-0.95-8.27
					c-1.11-4.08-3.28-8.07-3.91-12.4c-0.21-1.51-0.18-3.09,0.1-4.62c0.31-1.5,0.65-2.71,0.37-3.79c-0.61-2.5-2.97-4.29-4.84-6.09
					c0,0-3.15-2.92-3.15-2.92l-3.15-2.92c-3.07-3.02-5.97-4.62-9.18-0.76c-2,2.17-3.71,5.03-6.93,5.89
					c-3.01,0.65-5.89,0.8-8.82,0.78c-5.78-0.04-11.47-1.04-17.17-1.61c-6.23-0.97-10.61,1.99-12.17,8.06
					c-0.78,2.72-0.66,5.75-0.94,8.53c-0.38-5.45,0.06-12.26,4.88-15.87c2.37-1.77,5.47-1.87,8.3-1.63c2.86,0.24,5.7,0.56,8.55,0.83
					c5.67,0.52,11.47,0.89,17.06-0.31c1.36-0.36,2.51-1.27,3.47-2.31c1.97-2.02,3.44-4.83,6.27-5.8c2.97-1.01,5.64,1.29,7.62,3.2
					c0,0,3.12,2.94,3.12,2.94c1.79,1.79,4.52,4.09,6.19,5.96c0.94,1.08,1.8,2.32,2.1,3.76c0.34,1.46-0.12,2.91-0.4,4.28
					c-0.57,2.8-0.03,5.69,0.83,8.4c1.87,5.37,4,10.89,3.48,16.7c-0.2,4.22-2.04,8.92-6.25,10.55c-1.33,0.54-2.84,0.72-4.25,0.36
					C359.28,71.28,359.31,71.14,359.4,71.16L359.4,71.16z"/>
			</g>
			<g>
				<path class="st0" d="M319.4,30.55c-6.68,3.62-13.4,7.07-20.06,10.65c-4.19,2.02-5.63,3.19-5.79,8.01
					c-0.28,2.79-0.02,5.81,3.42,6.02c0.92,0.08,1.87,0.01,2.82-0.08c-0.92,0.24-1.86,0.44-2.83,0.45c-3.87,0.17-4.67-3.28-4.49-6.43
					c-0.12-5.17,1.69-7.04,6.22-9.2C305.39,36.42,312.27,33.18,319.4,30.55L319.4,30.55z"/>
			</g>
			<g>
				<path class="st0" d="M330.07,35.74c-8.21,5.65-19.67,14.42-27.75,20.49c-3.28,2.45-6.52,5.7-6.23,9.98
					c0.31,4.27,5.12,6.61,9.07,5.71c2.76-0.52,5.23-2.18,7.31-4.15c-1.86,2.19-4.27,4.03-7.16,4.81c-4.3,1.25-10.04-1.37-10.44-6.26
					c-0.51-4.75,3.16-8.65,6.6-11.19C310.71,48.24,320.03,41.42,330.07,35.74L330.07,35.74z"/>
			</g>
			<g>
				<path class="st0" d="M338.99,40.5c-8.29,9.07-17.28,18.28-25.93,26.99c0,0-3.31,3.3-3.31,3.3c-2.12,2.02-4.36,4.34-3.39,7.43
					c0.8,2.93,3.34,4.92,5.71,6.72c4.74,3.81,8.12,3.29,10.53-2.46c-1.97,6.27-6.03,6.95-11.05,3.17c-3.25-2.17-7-5.25-6.64-9.64
					c0.19-2.56,2.25-4.55,3.88-6.18c0,0,3.29-3.32,3.29-3.32C320.76,57.84,329.96,48.82,338.99,40.5L338.99,40.5z"/>
			</g>
			<g>
				<path class="st0" d="M342.3,46.97c-6.67,10.18-12.58,20.86-17.41,32.02c-1.21,2.77-2.29,5.59-2.56,8.51
					c-0.06,0.75-0.12,1.46,0.16,1.75c0.28,0.37,1.06,0.69,1.7,1.02c4.06,1.87,8.72,2.34,13.09,1.29c2.67-0.72,6.41-1.7,6.98-4.85
					c-0.01,0.77-0.32,1.52-0.8,2.13c-1.51,1.8-3.82,2.66-6,3.38c-4.48,1.27-9.46,1.03-13.76-0.84c-2.12-0.89-2.95-1.55-2.67-3.99
					c0.25-3.18,1.39-6.15,2.6-8.96C328.52,67.23,334.73,56.58,342.3,46.97L342.3,46.97z"/>
			</g>
			<g>
				<path class="st0" d="M348.19,47.22c-3.43,12.62-2.9,25.75-2.47,38.68c0.02,1.04,0.21,1.36,1.08,1.55
					c4.28,0.35,10.43,0.37,12.47-4.22c0.34-0.83,0.46-1.76,0.5-2.72c0.02-3.93-0.2-7.96-0.35-11.94
					c-0.38-7.99-1.13-15.95-2.06-23.89c2.22,11.84,3.49,23.81,3.68,35.87c0.19,6.21-6.05,8.74-11.37,8.38
					c-2.3-0.06-5.33,0.24-5.22-2.99C344.08,72.99,343.89,59.61,348.19,47.22L348.19,47.22z"/>
			</g>
		</g>
	</g>
	<g>
		<g>
			<path class="st10" d="M803.06,24.99c-2.43,5.51-1.64,18.96,1.04,24.38c1.37,2.77,3.8,4.87,6.41,6.53
				c4.34,2.77,9.48,4.53,14.6,4.03c8.96-0.88,10.11-8.32,16.55-12.59c5.28-3.5,12.31-1.48,18.27,0.65
				c16.88,6.03,33.94,12.23,48.78,22.28c4.06,2.75,8.24,6.3,8.87,11.16c0.47,3.66-1.22,7.32-0.86,11
				c0.68,6.85,8.14,11.02,14.98,11.86c7.55,0.93,15.99-1.14,20.53-7.25c5.02-6.75,3.83-16.6-0.63-23.73
				c-4.46-7.13-11.56-12.14-18.53-16.85c-20.54-13.88-41.94-26.99-65.25-35.69c-17.18-6.41-50.62-19.02-63.23,1.35L803.06,24.99z"/>
			<path class="st12" d="M739.83,19.75c3.53-6.91,7.93-14.33,15.32-16.7c9.08-2.92,18.94,3.63,19.92,13.11
				c0.36,3.51-0.76,7.47-3.81,9.25c-0.72,0.42-1.57,0.71-2.4,0.59c-2.18-0.32-2.99-3.12-2.69-5.3c1.91-13.96,23.16-11.9,21.94,1.86
				c-0.27,2.99-2.42,6.21-5.42,6.11c-3.94-0.13-0.81-9.81,0.11-11.15c4.36-6.31,26.03-5.55,21.85,3.92"/>
			<g>
				<path class="st6" d="M920.88,68.99c-19.29-11.2-39.12-21.82-60.19-29.27c-2.98-1.18-6.07-1.97-9.11-3.03
					C876.22,41.01,901.05,53.95,920.88,68.99L920.88,68.99z"/>
			</g>
		</g>
		<g>
			<path class="st7" d="M941.91,99.37c-6.07-0.62-11.45-3.86-15.93-7.81c-1.47-1.34-2.83-2.83-3.95-4.6l0.13-0.17
				c4.77,3.4,9.63,6.66,14.7,9.6c1.69,0.96,3.4,1.92,5.14,2.78C942,99.17,941.91,99.37,941.91,99.37L941.91,99.37z"/>
		</g>
		<g>
			<path class="st7" d="M830.44,50.31c-9.8-0.87-20.25-7.99-23.43-17.48c0,0,0.18-0.12,0.18-0.12c4.18,6.12,10.2,10.72,16.63,14.29
				c2.16,1.17,4.39,2.24,6.69,3.11C830.51,50.1,830.44,50.31,830.44,50.31L830.44,50.31z"/>
		</g>
	</g>
	<g>
		<path class="st3" d="M177.76,64.11c5.42,8.16,6.93,18.58,4.58,28.07c-1.27,5.13-4.04,10.01-8.32,13.1
			c-7.42,5.34-18.27,3.12-24.69-2.8c-2.98-2.75-5.36-6.25-8.87-8.28c-8.52-4.92-20.27,0.5-28.01-6.3
			c-4.21-3.71-5.02-10.03-4.18-15.58c4.42-29.09,35.15-30.1,56.7-19.48C170.32,55.47,174.64,59.41,177.76,64.11z"/>
		<path class="st3" d="M197.1,64.88c-2.62,1.02-5.07,2.75-6.34,5.26c-1.27,2.51-1.08,5.86,0.94,7.82c0.93,0.9,2.15,1.45,3.38,1.86
			c3.51,1.17,7.4,1.38,10.91,0.22c3.51-1.16,6.61-3.75,8.03-7.17C218.4,62.38,203.22,62.48,197.1,64.88z"/>
		<path class="st3" d="M175.51,49.45c-0.07,0.93-0.02,1.9,0.42,2.73c0.63,1.18,1.92,1.84,3.2,2.24c4.04,1.26,8.64,0.56,12.11-1.86
			c5.31-3.69,7.27-14.24-1.04-15.84C183.52,35.43,175.95,43.3,175.51,49.45z"/>
		<path class="st3" d="M152.39,22.45c-2.28,0.95-4,2.9-5.32,4.98c-1.94,3.06-3.19,6.8-2.34,10.32c0.85,3.52,4.33,6.53,7.91,5.91
			c3.44-0.6,5.59-4.02,6.98-7.23c0.97-2.24,1.81-4.6,1.86-7.05C161.58,24.29,157.61,20.27,152.39,22.45z"/>
		<path class="st3" d="M124.52,20.61c-2.93-1.68-6.92-0.26-8.91,2.46c-1.99,2.72-2.33,6.35-1.9,9.69c0.42,3.32,1.64,6.71,4.22,8.84
			c2.58,2.13,6.75,2.53,9.16,0.22c1.4-1.34,2-3.28,2.52-5.14c0.77-2.72,1.48-5.58,0.92-8.34c-0.6-2.9-2.57-5.38-4.95-7.15"/>
	</g>
	<g>
		<path class="st10" d="M747.92,169.87c8.37,7.02,13.27,17.68,13.75,28.57c0.26,5.88-1.16,11.98-4.77,16.63
			c-6.25,8.05-18.55,9.1-27.28,4.79c-4.06-2-7.7-4.99-12.09-6.05c-10.67-2.57-21.51,6.93-31.93,2.1c-5.67-2.64-8.53-9.14-9.38-15.34
			c-4.45-32.5,28.09-43.27,54.47-38.71C737.24,162.99,743.1,165.83,747.92,169.87z"/>
		<path class="st10" d="M768.84,164.59c-2.47,1.92-4.56,4.54-5.12,7.62c-0.57,3.08,0.69,6.6,3.47,8.06c1.28,0.67,2.76,0.87,4.2,0.92
			c4.12,0.15,8.34-0.86,11.73-3.21c3.39-2.35,5.88-6.1,6.33-10.2C790.82,155.2,774.62,160.1,768.84,164.59z"/>
		<path class="st10" d="M740.9,154.91c0.22,1.02,0.58,2.04,1.31,2.78c1.04,1.06,2.64,1.36,4.12,1.38c4.71,0.08,9.41-2.13,12.36-5.81
			c4.51-5.62,3.28-17.51-6.11-16.6C745.03,137.4,739.42,148.19,740.9,154.91z"/>
		<path class="st10" d="M707.65,133.33c-2.14,1.74-3.36,4.36-4.12,7c-1.11,3.89-1.27,8.27,0.75,11.77c2.02,3.5,6.7,5.62,10.32,3.83
			c3.49-1.73,4.7-6.06,5.18-9.93c0.33-2.71,0.48-5.49-0.23-8.12C718.06,132.41,712.54,129.35,707.65,133.33z"/>
		<path class="st10" d="M677.28,140.16c-3.66-0.87-7.48,1.9-8.75,5.44s-0.49,7.52,1.03,10.96c1.5,3.41,3.87,6.66,7.29,8.12
			c3.43,1.46,8.01,0.57,9.87-2.66c1.07-1.87,1.1-4.13,1.07-6.29c-0.04-3.15-0.17-6.43-1.65-9.21c-1.55-2.91-4.45-4.94-7.54-6.08"/>
	</g>
	<g>
		<path class="st1" d="M223.66,186.2c3.79-3.17,5.17-8.36,5.84-13.26c0.67-4.9,0.9-10.01,3.16-14.41"/>
		<path class="st13" d="M207.25,205.83c-1.48,2.35-2.88,4.84-3.32,7.59c-1.12,6.98,4.27,13.49,10.43,16.96
			c1.22,0.68,2.5,1.3,3.88,1.52c3.73,0.59,7.21-1.77,10.24-4.02c1.44-1.07,2.9-2.17,3.96-3.62c2.17-2.97,2.33-6.98,1.67-10.6
			c-1.05-5.83-5.22-15.19-11.18-17.7C216.07,193.06,210.47,200.71,207.25,205.83z"/>
		<path class="st10" d="M209.03,207c-1.26,2-2.45,4.12-2.82,6.45c-0.95,5.94,3.63,11.47,8.87,14.42c1.03,0.58,2.12,1.11,3.3,1.29
			c3.17,0.5,6.13-1.5,8.71-3.42c1.22-0.91,2.47-1.84,3.37-3.07c1.85-2.52,1.98-5.93,1.42-9.01c-0.9-4.95-4.44-12.91-9.5-15.05
			C216.53,196.15,211.77,202.65,209.03,207z"/>
		<path class="st13" d="M230.34,175.14c1.99-7.52,5.59-15.44,12.67-18.66c2.12-0.96,4.63-1.43,6.76-0.48
			c1.5,0.67,2.66,1.98,3.38,3.46c1.23,2.53,1.23,5.62,0,8.15c-1.02,2.11-2.79,3.74-4.51,5.33c-4.8,4.41-10.36,8.97-15.29,13.37
			c-2.89,2.58-4.45,2.69-5.25,3.14C227.94,189.53,229.26,179.23,230.34,175.14z"/>
		<path class="st13" d="M230.36,147.27c-0.71-1.93-1.88-3.77-3.66-4.81c-3.87-2.26-9.13,0.4-11.2,4.37s-1.82,8.72-1.39,13.18
			c0.31,3.16,2.02,12.26,3.07,17.35c0.62,3.01,1.67,19.93,7.3-0.08C226.87,168.8,233.09,154.64,230.36,147.27z"/>
		<path class="st13" d="M209.71,171.9c-1.04-4.1-2.64-7.98-5.03-11.2c-2.45-3.3-6.24-5.85-10.35-5.81
			c-3.65,0.04-5.87,2.67-6.07,6.29c-0.44,7.95,5.08,11.19,10.47,15.67c2.53,2.1,4.63,4.65,6.9,7.02c0.43,0.45,5.87,5.39,5.87,4.32
			C211.5,183.07,211.09,177.29,209.71,171.9z"/>
		<g>
			<path class="st10" d="M178.82,181.78c-3.64,0.58-4.62,5.9-1.74,8.02c5.45,3.94,11.82-0.44,11.08-6.93
				c-1.81-14.02-20.66-12.72-23.04,0.29c-2.18,12.36,10.79,19.66,20.58,23.6c4.3,1.72,8.76,3.09,13.2,4.52c0,0-0.04,0.13-0.04,0.13
				c-11.23-2.67-23.44-5.86-31.39-14.87c-4.82-5.49-5.32-14.51-0.38-20.09c7.29-8.07,20.67-4.98,21.75,6.37
				c0.64,6.94-6.23,11.56-11.98,7.24c-1.92-1.55-2.28-4.47-0.93-6.5c0.62-1.01,1.68-1.77,2.87-1.91L178.82,181.78L178.82,181.78z"/>
		</g>
		<g>
			<path class="st10" d="M259.52,184.38c2.47,0.3,3.96,3,3.65,5.33c-0.28,2.46-2.61,4.19-4.92,4.59c-5.37,1.03-9.25-3.6-8.77-8.75
				c1.08-11.35,14.46-14.44,21.75-6.37c3.24,3.68,4.2,9,2.98,13.69c-1.2,4.75-4.78,8.45-8.65,11.2c-7.75,5.48-17.01,7.96-26.1,10.08
				c0,0-0.04-0.13-0.04-0.13c4.44-1.43,8.9-2.79,13.2-4.52c9.78-3.94,22.76-11.25,20.58-23.6c-2.38-13.01-21.23-14.3-23.04-0.29
				c-0.74,6.49,5.63,10.87,11.08,6.93c2.88-2.12,1.9-7.44-1.74-8.02C259.51,184.52,259.52,184.38,259.52,184.38L259.52,184.38z"/>
		</g>
		<g>
			<path class="st10" d="M191.65,193.48c-0.91-0.44-2.08-0.3-2.85,0.36c-1.02,0.87-1.21,2.53-0.48,3.65"/>
			<path class="st10" d="M188.46,197.69c0.8,1.01,2.27,1.42,3.5,1.01c1.69-0.57,2.69-2.7,1.95-4.32s-3.11-2.24-4.49-1.11"/>
			<g>
				<path class="st10" d="M188.07,195.18c-1.34,3.71,1.45,7.36,4.65,8.98c1.62,0.89,3.44,1.4,5.17,2.18
					c1.73,0.76,3.41,1.46,5.3,1.88c0,0,0,0.14,0,0.14c-4.89,0.65-12.87-2.99-15.07-7.54c-0.84-1.78-1.07-3.95-0.17-5.7
					L188.07,195.18L188.07,195.18z"/>
			</g>
		</g>
		<g>
			<path class="st10" d="M201.09,186.46c-0.65-0.78-1.78-1.12-2.75-0.84c-1.29,0.37-2.14,1.81-1.94,3.14"/>
			<path class="st10" d="M196.45,188.99c0.31,1.25,1.49,2.22,2.78,2.35c1.77,0.18,3.56-1.36,3.55-3.14
				c-0.01-1.78-1.92-3.32-3.64-2.86"/>
			<g>
				<path class="st10" d="M197.13,186.54c-2.74,2.83-1.7,7.31,0.56,10.09c1.11,1.48,2.56,2.69,3.82,4.11
					c1.27,1.4,2.51,2.73,4.06,3.89l-0.06,0.12c-4.73-1.41-10.51-8-10.65-13.05c-0.04-1.97,0.64-4.04,2.18-5.27L197.13,186.54
					L197.13,186.54z"/>
			</g>
		</g>
		<g>
			<path class="st10" d="M248.26,196.39c0.93-0.4,2.09-0.2,2.83,0.49c0.98,0.91,1.1,2.58,0.32,3.67"/>
			<path class="st10" d="M251.26,200.74c-0.84,0.97-2.33,1.32-3.54,0.85c-1.66-0.64-2.56-2.81-1.76-4.4s3.21-2.1,4.53-0.91"/>
			<g>
				<path class="st10" d="M251.89,198.19c1.66,3.84-1.28,8.02-4.66,9.78c-3.41,1.84-7.24,3.44-11.16,2.77c0,0,0-0.14,0-0.14
					c1.9-0.33,3.61-0.97,5.38-1.64c3.42-1.26,7.37-2.13,9.42-5.42c1-1.51,1.51-3.48,0.89-5.29
					C251.76,198.24,251.89,198.19,251.89,198.19L251.89,198.19z"/>
			</g>
		</g>
		<g>
			<path class="st10" d="M238.51,189.19c0.65-0.78,1.78-1.12,2.75-0.84c1.29,0.37,2.14,1.81,1.94,3.14"/>
			<path class="st10" d="M243.15,191.73c-0.31,1.25-1.49,2.22-2.78,2.35c-1.77,0.18-3.56-1.36-3.55-3.14s1.92-3.32,3.64-2.86"/>
			<g>
				<path class="st10" d="M242.56,189.17c3.21,2.68,2.46,7.74,0.24,10.83c-2.22,3.18-4.91,6.33-8.72,7.49c0,0-0.06-0.12-0.06-0.12
					c1.55-1.15,2.79-2.49,4.06-3.89c2.49-2.67,5.63-5.22,5.97-9.08c0.21-1.8-0.22-3.79-1.59-5.13L242.56,189.17L242.56,189.17z"/>
			</g>
		</g>
	</g>
	<g>
		<path class="st1" d="M524.27,202.4c2.73-2.28,3.72-6.02,4.21-9.55c0.49-3.53,0.65-7.21,2.28-10.38"/>
		<path class="st14" d="M512.45,216.53c-1.07,1.69-2.07,3.49-2.39,5.46c-0.81,5.03,3.07,9.72,7.51,12.21
			c0.88,0.49,1.8,0.94,2.79,1.1c2.68,0.43,5.2-1.27,7.38-2.89c1.04-0.77,2.09-1.56,2.85-2.6c1.56-2.14,1.68-5.03,1.2-7.63
			c-0.76-4.2-3.76-10.94-8.05-12.75C518.8,207.34,514.77,212.84,512.45,216.53z"/>
		<path class="st3" d="M513.74,217.38c-0.91,1.44-1.76,2.96-2.03,4.64c-0.69,4.27,2.61,8.26,6.38,10.38
			c0.74,0.42,1.53,0.8,2.37,0.93c2.28,0.36,4.42-1.08,6.27-2.46c0.88-0.66,1.78-1.33,2.42-2.21c1.33-1.82,1.43-4.27,1.02-6.49
			c-0.65-3.57-3.2-9.3-6.84-10.83C519.13,209.56,515.71,214.24,513.74,217.38z"/>
		<path class="st14" d="M529.08,194.44c1.43-5.42,4.03-11.12,9.13-13.44c1.53-0.69,3.33-1.03,4.87-0.35
			c1.08,0.48,1.92,1.43,2.43,2.49c0.88,1.82,0.88,4.05,0,5.87c-0.74,1.52-2.01,2.7-3.25,3.84c-3.45,3.18-7.46,6.46-11.01,9.63
			c-2.08,1.85-3.2,1.94-3.78,2.26C527.35,204.8,528.3,197.38,529.08,194.44z"/>
		<path class="st14" d="M529.09,174.36c-0.51-1.39-1.36-2.72-2.63-3.46c-2.79-1.62-6.57,0.28-8.07,3.15s-1.31,6.28-1,9.49
			c0.22,2.28,1.45,8.83,2.21,12.5c0.45,2.17,1.2,14.35,5.25-0.06C526.58,189.87,531.06,179.67,529.09,174.36z"/>
		<path class="st14" d="M514.23,192.1c-0.75-2.95-1.9-5.75-3.62-8.06c-1.76-2.38-4.5-4.21-7.45-4.18c-2.63,0.03-4.23,1.92-4.37,4.53
			c-0.32,5.73,3.66,8.06,7.54,11.28c1.82,1.52,3.33,3.35,4.97,5.05c0.31,0.32,4.22,3.88,4.22,3.11
			C515.51,200.14,515.21,195.99,514.23,192.1z"/>
		<g>
			<path class="st3" d="M491.98,199.22c-1.69,0.24-2.69,2.13-2.45,3.71c0.62,3.49,5.73,4.04,7.84,1.6
				c3.28-3.94,0.22-10.5-4.51-11.53c-3.15-0.78-6.65,0.47-8.74,2.89c-4.54,5.73-1.55,12.87,4.07,16.61
				c5.24,4.06,12.17,5.8,18.21,8.05c-8.09-1.93-16.88-4.22-22.6-10.71c-3.47-3.95-3.84-10.44-0.27-14.47
				c2.34-2.6,6.09-3.88,9.5-2.99c5.12,1.23,8.25,8.23,4.64,12.42c-1.83,1.91-5.09,2.09-7.09,0.38c-1.38-1.12-1.64-3.22-0.67-4.68
				c0.45-0.73,1.21-1.28,2.07-1.38L491.98,199.22L491.98,199.22z"/>
		</g>
		<g>
			<path class="st3" d="M550.09,201.09c1.78,0.21,2.85,2.16,2.63,3.84c-0.2,1.77-1.88,3.01-3.55,3.3c-3.8,0.79-6.71-2.65-6.31-6.3
				c0.72-8.13,10.47-10.41,15.66-4.59c3.56,4.03,3.19,10.52-0.27,14.47c-5.73,6.49-14.51,8.78-22.6,10.71
				c6.05-2.25,12.97-3.99,18.21-8.05c5.62-3.74,8.62-10.89,4.07-16.61c-2.1-2.42-5.6-3.67-8.74-2.89
				c-4.73,1.03-7.78,7.59-4.51,11.53c2.11,2.44,7.22,1.89,7.84-1.6c0.25-1.58-0.75-3.47-2.45-3.71
				C550.08,201.19,550.09,201.09,550.09,201.09L550.09,201.09z"/>
		</g>
		<g>
			<path class="st3" d="M501.22,207.64c-0.66-0.32-1.5-0.21-2.06,0.26c-0.74,0.62-0.87,1.82-0.35,2.63"/>
			<path class="st3" d="M498.92,210.67c0.57,0.73,1.63,1.02,2.52,0.73c1.22-0.41,1.93-1.94,1.41-3.11s-2.24-1.61-3.23-0.8"/>
			<g>
				<path class="st3" d="M498.64,208.86c-0.97,2.67,1.04,5.3,3.35,6.46c1.17,0.63,2.48,1.02,3.72,1.57
					c1.25,0.55,2.46,1.06,3.81,1.36c0,0,0,0.1,0,0.1c-3.64,0.42-9.16-2.08-10.85-5.43c-0.61-1.28-0.77-2.84-0.12-4.1L498.64,208.86
					L498.64,208.86z"/>
			</g>
		</g>
		<g>
			<path class="st3" d="M508.02,202.58c-0.47-0.56-1.28-0.81-1.98-0.61c-0.93,0.27-1.54,1.3-1.39,2.26"/>
			<path class="st3" d="M504.68,204.41c0.22,0.9,1.07,1.6,2,1.69c1.28,0.13,2.56-0.98,2.56-2.26c0-1.28-1.38-2.39-2.62-2.06"/>
			<g>
				<path class="st3" d="M505.16,202.64c-1.98,2.04-1.22,5.26,0.41,7.27c0.81,1.06,1.84,1.94,2.75,2.96
					c0.91,1.01,1.81,1.97,2.92,2.8c0,0-0.04,0.09-0.04,0.09c-3.49-1.11-7.5-5.65-7.67-9.4c-0.03-1.42,0.46-2.91,1.57-3.79
					C505.1,202.57,505.16,202.64,505.16,202.64L505.16,202.64z"/>
			</g>
		</g>
		<g>
			<path class="st3" d="M541.98,209.73c0.67-0.29,1.51-0.15,2.04,0.35c0.71,0.66,0.79,1.86,0.23,2.64"/>
			<path class="st3" d="M544.14,212.87c-0.6,0.7-1.68,0.95-2.55,0.61c-1.2-0.46-1.85-2.03-1.26-3.17c0.58-1.14,2.31-1.51,3.26-0.66"
				/>
			<g>
				<path class="st3" d="M544.59,211.04c2.12,5.77-6.75,9.76-11.39,9.03c0,0,0-0.1,0-0.1c2.64-0.57,5.17-1.63,7.66-2.59
					c2.36-1.06,4.48-3.6,3.63-6.31C544.5,211.07,544.59,211.04,544.59,211.04L544.59,211.04z"/>
			</g>
		</g>
		<g>
			<path class="st3" d="M534.96,204.55c0.47-0.56,1.28-0.81,1.98-0.61c0.93,0.27,1.54,1.3,1.39,2.26"/>
			<path class="st3" d="M538.3,206.38c-0.22,0.9-1.07,1.6-2,1.69c-1.28,0.13-2.56-0.98-2.56-2.26c0-1.28,1.38-2.39,2.62-2.06"/>
			<g>
				<path class="st3" d="M537.88,204.54c4.49,4.2-1.63,11.75-6.1,13.19c0,0-0.04-0.09-0.04-0.09c2.1-1.7,3.89-3.79,5.68-5.76
					c1.63-2.01,2.38-5.23,0.41-7.27C537.81,204.61,537.88,204.54,537.88,204.54L537.88,204.54z"/>
			</g>
		</g>
	</g>
</g>
</svg>
