<?xml version="1.0" encoding="utf-8"?>
<!-- Generator: Adobe Illustrator 26.1.0, SVG Export Plug-In . SVG Version: 6.00 Build 0)  -->
<svg version="1.1" id="Layer_1" xmlns="http://www.w3.org/2000/svg" xmlns:xlink="http://www.w3.org/1999/xlink" x="0px" y="0px"
	 viewBox="0 0 1119.72 272.5" style="enable-background:new 0 0 1119.72 272.5;" xml:space="preserve">
<style type="text/css">
	.st0{fill:#F16587;}
	.st1{fill:none;}
	.st2{fill:none;stroke:#D9B384;stroke-width:1.282;stroke-miterlimit:10;}
	.st3{fill:#D9B384;}
	.st4{fill:#EAD450;}
	.st5{fill:none;stroke:#EAD450;stroke-width:3.0963;stroke-linecap:round;stroke-linejoin:round;stroke-miterlimit:10;}
	.st6{fill:#E7E2A7;}
	.st7{fill:#CEBC47;}
	.st8{fill:#8FD4D8;}
	.st9{fill:#31BCB1;}
	.st10{fill:#FFFFFF;}
	.st11{fill:#DA5B7B;}
	.st12{fill:none;stroke:#FFFFFF;stroke-width:2.2099;stroke-linecap:round;stroke-linejoin:round;stroke-miterlimit:10;}
	.st13{fill:none;stroke:#FFFFFF;stroke-width:1.0428;stroke-miterlimit:10;}
	.st14{fill:none;stroke:#D9B384;stroke-width:0.7509;stroke-miterlimit:10;}
</style>
<g>
	<rect x="0.01" class="st0" width="1120.29" height="273"/>
	<g>
		<path class="st1" d="M951.99,200.41c4.74-3.96,6.46-10.45,7.3-16.57c0.84-6.12,1.12-12.51,3.95-18.01"/>
		<path class="st2" d="M931.48,224.94c-1.85,2.94-3.6,6.05-4.15,9.48c-1.4,8.73,5.33,16.86,13.04,21.2c1.52,0.86,3.12,1.63,4.85,1.9
			c4.66,0.74,9.02-2.21,12.8-5.02c1.8-1.34,3.63-2.71,4.95-4.52c2.71-3.71,2.91-8.72,2.09-13.25c-1.32-7.28-6.53-18.98-13.98-22.12
			C942.5,208.99,935.51,218.54,931.48,224.94z"/>
		<path class="st3" d="M933.71,226.41c-1.57,2.5-3.06,5.14-3.53,8.06c-1.19,7.42,4.53,14.34,11.08,18.02
			c1.29,0.73,2.65,1.38,4.12,1.62c3.96,0.63,7.66-1.88,10.88-4.27c1.53-1.14,3.08-2.3,4.21-3.84c2.31-3.16,2.47-7.42,1.78-11.26
			c-1.12-6.19-5.55-16.14-11.88-18.8C943.07,212.85,937.13,220.97,933.71,226.41z"/>
		<path class="st2" d="M960.33,186.59c2.49-9.4,6.99-19.3,15.84-23.33c2.65-1.2,5.79-1.78,8.45-0.6c1.88,0.83,3.33,2.47,4.22,4.32
			c1.53,3.16,1.54,7.03,0,10.19c-1.28,2.63-3.48,4.68-5.64,6.66c-6,5.51-12.95,11.22-19.11,16.71c-3.61,3.22-5.56,3.36-6.56,3.92
			C957.33,204.58,958.98,191.7,960.33,186.59z"/>
		<path class="st2" d="M960.36,151.75c-0.89-2.41-2.35-4.72-4.57-6.01c-4.84-2.82-11.41,0.49-14,5.46
			c-2.59,4.97-2.28,10.9-1.74,16.47c0.38,3.95,2.52,15.32,3.83,21.69c0.78,3.77,2.09,24.91,9.12-0.1
			C955.99,178.67,963.78,160.96,960.36,151.75z"/>
		<path class="st2" d="M934.56,182.54c-1.3-5.12-3.3-9.98-6.28-13.99c-3.06-4.12-7.8-7.31-12.94-7.26
			c-4.56,0.05-7.34,3.34-7.59,7.86c-0.55,9.94,6.35,13.99,13.09,19.58c3.17,2.63,5.78,5.81,8.63,8.77c0.54,0.56,7.33,6.74,7.33,5.4
			C936.79,196.5,936.28,189.28,934.56,182.54z"/>
		<g>
			<path class="st3" d="M895.94,194.89c-4.55,0.72-5.77,7.37-2.17,10.02c3.29,2.73,8.68,2.33,11.54-0.8
				c1.86-2.09,2.55-5.09,2.31-7.86c-2.25-17.5-25.82-15.92-28.8,0.36c-2.72,15.45,13.49,24.57,25.72,29.5
				c5.38,2.15,10.95,3.86,16.49,5.65c0,0-0.05,0.16-0.05,0.16c-14.04-3.34-29.29-7.33-39.23-18.59c-6.02-6.86-6.65-18.14-0.47-25.11
				c5.97-6.94,18.16-7.96,23.91-0.28c3.76,4.58,4.77,11.97,0.61,16.64c-4.05,4.48-13.4,3.29-14.45-3.19
				c-0.38-2.91,1.48-6.29,4.57-6.66C895.92,194.72,895.94,194.89,895.94,194.89L895.94,194.89z"/>
		</g>
		<g>
			<path class="st3" d="M996.81,198.14c4.82,0.67,6.16,7.67,2.43,10.51c-3.48,2.97-9.13,2.66-12.31-0.66
				c-2.08-2.26-2.85-5.42-2.66-8.39c1.36-14.19,18.08-18.05,27.19-7.97c6.17,6.98,5.55,18.26-0.48,25.11
				c-9.94,11.26-25.19,15.24-39.23,18.59c0,0-0.05-0.16-0.05-0.16c5.55-1.79,11.12-3.49,16.49-5.65
				c12.23-4.93,28.45-14.06,25.72-29.5c-2.98-16.27-26.55-17.86-28.8-0.36c-0.24,2.77,0.45,5.77,2.31,7.86
				c2.85,3.13,8.25,3.53,11.54,0.8c3.6-2.64,2.38-9.3-2.17-10.02C996.79,198.31,996.81,198.14,996.81,198.14L996.81,198.14z"/>
		</g>
		<g>
			<path class="st3" d="M911.99,209.51c-1.14-0.55-2.6-0.37-3.57,0.45c-1.28,1.08-1.51,3.16-0.6,4.57"/>
			<path class="st3" d="M908,214.77c0.99,1.26,2.84,1.77,4.37,1.26c2.11-0.71,3.36-3.37,2.44-5.4s-3.89-2.8-5.61-1.39"/>
			<g>
				<path class="st3" d="M907.51,211.63c-1.68,4.63,1.81,9.2,5.81,11.22c2.03,1.11,4.3,1.76,6.46,2.73
					c2.16,0.94,4.27,1.83,6.62,2.35l0,0.17c-5.99,0.86-16.19-3.81-18.83-9.42c-1.05-2.22-1.33-4.93-0.22-7.12L907.51,211.63
					L907.51,211.63z"/>
			</g>
		</g>
		<g>
			<path class="st3" d="M923.78,200.74c-0.81-0.97-2.22-1.4-3.44-1.05c-1.61,0.46-2.68,2.26-2.42,3.92"/>
			<path class="st3" d="M917.99,203.9c0.39,1.56,1.86,2.78,3.47,2.94c2.21,0.22,4.44-1.7,4.44-3.92c-0.01-2.22-2.4-4.15-4.55-3.57"
				/>
			<g>
				<path class="st3" d="M918.83,200.84c-3.43,3.54-2.12,9.14,0.7,12.62c1.39,1.84,3.21,3.36,4.78,5.14
					c1.59,1.75,3.14,3.42,5.07,4.86l-0.07,0.15c-5.79-1.64-13.23-10.14-13.32-16.31c-0.05-2.46,0.8-5.05,2.72-6.59L918.83,200.84
					L918.83,200.84z"/>
			</g>
		</g>
		<g>
			<path class="st3" d="M982.73,213.14c1.16-0.5,2.61-0.25,3.54,0.61c1.23,1.14,1.37,3.22,0.4,4.59"/>
			<path class="st3" d="M986.48,218.58c-1.05,1.22-2.91,1.64-4.42,1.06c-2.08-0.8-3.2-3.52-2.2-5.5c1.01-1.98,4.01-2.62,5.67-1.14"
				/>
			<g>
				<path class="st3" d="M987.27,215.4c2.08,4.8-1.61,10.02-5.82,12.22c-4.26,2.3-9.04,4.3-13.95,3.46c0,0,0-0.17,0-0.17
					c2.37-0.42,4.51-1.21,6.72-2.06c4.28-1.58,9.22-2.66,11.77-6.78c1.24-1.89,1.89-4.35,1.11-6.61
					C987.11,215.47,987.27,215.4,987.27,215.4L987.27,215.4z"/>
			</g>
		</g>
		<g>
			<path class="st3" d="M970.55,204.15c0.81-0.97,2.22-1.4,3.44-1.05c1.61,0.46,2.68,2.26,2.42,3.92"/>
			<path class="st3" d="M976.35,207.32c-0.39,1.56-1.86,2.78-3.47,2.94c-2.21,0.22-4.44-1.7-4.44-3.92c0.01-2.22,2.4-4.15,4.55-3.57
				"/>
			<g>
				<path class="st3" d="M975.61,204.13c4.02,3.35,3.08,9.67,0.3,13.53c-2.77,3.97-6.14,7.91-10.9,9.37c0,0-0.07-0.15-0.07-0.15
					c1.93-1.44,3.49-3.11,5.07-4.86c3.11-3.34,7.03-6.53,7.46-11.35c0.26-2.25-0.27-4.73-1.98-6.41L975.61,204.13L975.61,204.13z"/>
			</g>
		</g>
	</g>
	<g>
		<g>
			<path class="st4" d="M406.95,164.17c1.2,8.49,12.25,24.18,19.57,28.73c3.73,2.32,8.26,3.04,12.65,3.09
				c7.33,0.09,14.88-1.63,20.7-6.08c10.18-7.79,5.99-17.67,10.58-27.66c3.77-8.2,13.78-11.03,22.6-12.93
				c24.96-5.37,50.26-10.68,75.77-9.65c6.98,0.28,14.71,1.43,19.11,6.85c3.31,4.08,4.02,9.78,7.21,13.95
				c5.97,7.78,18.12,7.23,27.03,3.12c9.84-4.54,18.5-13.39,19.41-24.19c1.01-11.94-7.83-22.97-18.58-28.26
				c-10.75-5.28-23.1-6.01-35.07-6.48c-35.28-1.39-71.03-1.19-105.78,5.78c-25.61,5.14-75.56,14.98-75.53,49.1L406.95,164.17z"/>
			<path class="st5" d="M326.48,205.29c-0.91-11.02-1.16-23.29,6.01-31.72c8.8-10.35,25.65-9.82,33.95,0.91
				c3.07,3.97,4.68,9.62,2.34,14.06c-0.56,1.06-1.36,2.04-2.46,2.51c-2.88,1.25-5.96-1.52-7.24-4.39
				c-8.17-18.32,19.11-31.79,27.95-14.22c1.93,3.82,1.74,9.33-1.98,11.47c-4.87,2.8-8.35-11.27-8.23-13.58
				c0.55-10.91,27.34-26.26,29.4-11.66"/>
			<g>
				<path class="st6" d="M582.6,128.99c-36.35,1.03-72.85,3.61-108.13,12.92C507.08,128.71,547.73,125.62,582.6,128.99L582.6,128.99
					z"/>
			</g>
		</g>
		<g>
			<path class="st7" d="M630.86,149.98c-9.71,4.72-23.62,4.35-33.38-0.09c0,0,0.03-0.31,0.03-0.31c8.33,0.54,16.66,0.83,25,0.59
				c2.77-0.11,5.56-0.23,8.32-0.49L630.86,149.98L630.86,149.98z"/>
		</g>
		<g>
			<path class="st7" d="M459.1,174.26c-9.74,4.97-21.68,5.19-31.94,1.78c-3.47-1.15-6.76-2.97-9.54-5.36c0,0,0.13-0.28,0.13-0.28
				s2.44,0.97,2.44,0.97c9,3.46,18.83,4.31,28.41,3.82c3.49-0.23,6.99-0.58,10.43-1.24C459.03,173.96,459.1,174.26,459.1,174.26
				L459.1,174.26z"/>
		</g>
	</g>
	<g>
		<path class="st8" d="M1063.85,75.65c3.02,0.78,6.3-0.87,8.14-3.39c1.84-2.52,2.44-5.75,2.48-8.87c0.04-2.67-0.3-5.35-1-7.94
			c-1.44-5.31-4.44-10.53-3.53-15.96c0.22-1.28,0.65-2.53,0.59-3.83c-0.11-2.64-2.17-4.74-4.1-6.55c-2.59-2.44-5.19-4.88-7.78-7.32
			c-1.75-1.64-3.78-3.4-6.18-3.29c-4.9,0.22-6.65,7.6-11.46,8.56c-7.71,1.53-16.03,0.28-23.85-0.46c-2.94-0.28-6.03-0.62-8.74,0.57
			c-2.94,1.29-4.89,4.23-5.77,7.32c-0.88,3.09-0.84,6.35-0.8,9.56c-0.11-0.17-0.27-0.15-0.38,0.02c-0.62,0.98-1.86,1.86-2.79,2.55
			c-1.48,1.1-1.95,3.08-2.13,4.91c-0.19,1.87-0.19,3.75-0.01,5.62c0.08,0.78,0.22,1.63,0.81,2.14c0.44,0.38,1.05,0.49,1.63,0.57
			c2.14,0.27,4.33,0.2,6.45-0.21c-2.68,0.76-4.86,3.03-6.01,5.57c-1.15,2.54-1.28,5.47-0.66,8.19c0.14,0.62,0.34,1.25,0.76,1.71
			c0.54,0.59,1.36,0.81,2.14,1c2.34,0.59,4.82,1.17,7.13,0.5c2.15-0.62,3.86-2.23,5.47-3.79c-2.06,2.3-4.8,5.03-5.15,8.09
			c-0.22,1.92,0.32,3.88,1.27,5.56c2.18,3.87,6.66,6.31,11.09,6.07c0.67-0.04,1.35-0.14,1.96-0.43c2.03-0.97,2.51-3.59,2.73-5.83
			c-0.32,1.67-0.83,3.61-1.15,5.28c-0.27,1.38-0.44,3.05,0.62,3.97c0.46,0.4,1.07,0.57,1.66,0.71c3.23,0.79,6.56,1.2,9.89,1.23
			c2.37,0.02,4.81-0.17,6.97-1.16s4.01-2.91,4.38-5.25c-0.47,0.56-0.13,1.55,0.46,1.98c0.59,0.43,1.36,0.51,2.09,0.57
			c2.04,0.18,4.11,0.35,6.12-0.04c2.01-0.39,3.99-1.41,5.07-3.15c0.94-1.52,1.09-3.38,1.19-5.16
			C1063.65,81.81,1063.96,79.12,1063.85,75.65z"/>
		<g>
			<g>
				<path class="st9" d="M1063.39,76.06c6.26,1.04,10-5.47,9.9-11c0.11-2.83-0.22-5.69-0.97-8.41c-1.13-4.14-3.34-8.2-3.97-12.6
					c-0.21-1.53-0.18-3.14,0.11-4.69c0.31-1.52,0.66-2.75,0.38-3.86c-0.62-2.54-3.02-4.36-4.92-6.19c0,0-3.2-2.97-3.2-2.97
					s-3.2-2.97-3.2-2.97c-1.85-1.66-3.82-3.69-6.38-2.95c-2.44,0.84-3.94,3.6-5.84,5.49c-3.05,3.69-8.82,3.36-13.13,3.47
					c-5.88-0.04-11.66-1.06-17.46-1.64c-2.82-0.3-5.7-0.24-7.93,1.34c-4.85,3.36-5.24,9.98-5.33,15.45c0.01,0.09-0.14,0.09-0.14,0
					c-0.17-5.64,0.08-12.37,5.04-16.06c2.41-1.8,5.56-1.9,8.43-1.66c2.9,0.24,5.79,0.57,8.69,0.84c5.77,0.53,11.66,0.9,17.34-0.32
					c1.38-0.37,2.55-1.29,3.53-2.34c2.01-2.05,3.5-4.91,6.37-5.9c3.01-1.03,5.73,1.31,7.75,3.26c0,0,3.18,2.99,3.18,2.99
					c1.82,1.82,4.6,4.16,6.29,6.06c0.96,1.09,1.83,2.35,2.13,3.82c0.34,1.48-0.12,2.96-0.41,4.35c-0.58,2.85-0.03,5.79,0.84,8.54
					c1.9,5.46,4.07,11.07,3.54,16.98c-0.2,4.29-2.08,9.06-6.36,10.73c-1.36,0.55-2.89,0.73-4.32,0.36
					C1063.27,76.17,1063.3,76.03,1063.39,76.06L1063.39,76.06z"/>
			</g>
			<g>
				<path class="st9" d="M1022.73,34.77c-6.79,3.68-13.62,7.19-20.4,10.83c-4.26,2.05-5.72,3.24-5.89,8.14
					c-0.29,2.83-0.02,5.91,3.47,6.12c0.94,0.08,1.9,0.01,2.86-0.08c-0.93,0.24-1.89,0.45-2.88,0.46c-3.93,0.17-4.74-3.33-4.56-6.53
					c-0.12-5.25,1.72-7.15,6.33-9.35C1008.48,40.74,1015.48,37.44,1022.73,34.77L1022.73,34.77z"/>
			</g>
			<g>
				<path class="st9" d="M1033.58,40.05c-8.34,5.74-20,14.65-28.21,20.83c-4.31,2.93-8.89,8.95-4.77,13.73
					c4.27,4.46,11.27,1.99,15.08-1.99c-3.7,4.67-10.95,7.44-15.86,2.75c-5.02-5.31-0.11-12.31,4.68-15.61
					C1013.9,52.76,1023.37,45.82,1033.58,40.05L1033.58,40.05z"/>
			</g>
			<g>
				<path class="st9" d="M1042.65,44.89c-8.43,9.22-17.57,18.59-26.36,27.44c0,0-3.37,3.36-3.37,3.36
					c-2.15,2.06-4.43,4.41-3.45,7.55c0.81,2.98,3.4,5.01,5.8,6.83c4.81,3.87,8.25,3.35,10.71-2.5c-2,6.38-6.13,7.06-11.24,3.22
					c-3.3-2.2-7.11-5.34-6.75-9.8c0.19-2.6,2.28-4.63,3.94-6.28c0,0,3.35-3.38,3.35-3.38C1024.11,62.51,1033.46,53.34,1042.65,44.89
					L1042.65,44.89z"/>
			</g>
			<g>
				<path class="st9" d="M1046.01,51.46c-6.78,10.35-12.79,21.21-17.7,32.56c-1.23,2.81-2.33,5.68-2.6,8.65
					c-0.06,0.76-0.12,1.49,0.16,1.78c0.28,0.38,1.08,0.7,1.73,1.03c4.13,1.9,8.86,2.38,13.3,1.32c2.72-0.73,6.52-1.72,7.09-4.93
					c-0.28,3.36-4.19,4.66-6.92,5.6c-4.94,1.41-10.47,0.98-15.08-1.37c-6.28-2.25,7.21-25.21,9.5-29.26
					C1038.68,61.5,1042.15,56.33,1046.01,51.46L1046.01,51.46z"/>
			</g>
			<g>
				<path class="st9" d="M1051.99,51.71c-3.49,12.83-2.95,26.18-2.51,39.32c0.02,1.06,0.21,1.38,1.09,1.57
					c0.82,0.14,1.94,0.1,2.91,0.13c2.84,0.02,5.99-0.32,8.16-2.23c1.5-1.24,2.08-3.03,2.1-4.95c0.02-4-0.2-8.1-0.36-12.14
					c-0.39-8.12-1.15-16.21-2.09-24.29c1.54,8,2.54,16.1,3.18,24.22c0.33,4.08,0.51,8.11,0.56,12.25c-0.03,1.05-0.15,2.16-0.56,3.21
					c-1.74,4.29-6.85,5.49-11,5.31c-2.33-0.06-5.42,0.24-5.31-3.04C1047.82,77.91,1047.63,64.31,1051.99,51.71L1051.99,51.71z"/>
			</g>
		</g>
	</g>
	<g>
		<path class="st10" d="M69.94,174.01c1.58-2.62,4.36-4.23,6.74-6.16c4.11-3.35,7.17-7.96,8.66-13.05
			c-1.03,4.34-1.29,8.83-2.16,13.21c-0.87,4.38-2.43,8.79-5.59,11.95c3.71-2.33,8.46-1.57,12.84-1.55
			c5.17,0.02,10.34-1.13,15.02-3.33c-5.31,2.94-9.13,8.5-19.75,11.39c2.68-0.32,9.89,0.51,12.55,0.97c1.91,0.33,5.2,2.72,6.76,3.86
			c0,0,3.86,4.91,8.45,5.96c-13.27-0.17-11.34,0.79-18.1-1.14c-4.86-1.39-5.79,0-14.06-3.53c4.54,3.03,6.62,8.52,8.79,13.53
			c2.17,5.01,5.2,10.32,10.41,11.98c-2.92,1.82-6.85,0.47-9.52-1.71c-2.67-2.18-4.68-5.12-7.54-7.05c-1.78-1.21-3.82-1.98-5.64-3.11
			c-1.83-1.13-3.51-2.77-3.93-4.87c-0.21,6.16,2.18,7.31-0.64,18.49c-1.03,4.08,2.21,9.46,0.88,12.96c0.37-3.44-2.98-6.53-5.04-9.3
			c-3.26-4.38-4.75-13.35-3.65-18.7c-3.42,2.87-4.83,5.79-12.05,8.33c-4.21,1.48-8.74,3.38-10.74,7.37
			c1.95-3.23,0.67-7.58,2.51-10.88c2.33-4.16,8.96-7.83,9.65-12.55c-3.86,0.97-4.4,1.93-14.48,1.93c-3.86,0-9.57,1.71-12.9,1.1
			c4.75-2.1,9.04-3.99,11.93-7.85c3.05-4.07,8.54-3.59,13.52-3.86c-3.31-2.32-6.9-0.34-10.62-1.93c-6.76-2.9-5.79-3.86-8.41-6.33
			c-1.04-0.98-2.41-1.2-3.44-2.23c-0.56-0.56-1.83-3.44-2.24-3.61c3.96,1.59,8.27,2.3,12.53,2.06c1.95-0.11,3.91-0.42,5.86-0.24
			c1.92,0.17,3.54,0.92,4.98,2.17c-0.66-1.27-2.24-1.8-3.27-2.77c-1.1-1.04-1.67-2.54-1.85-4.04c-0.35-2.89,0.04-6.07,0.05-8.99
			c0.01-1.77,0.02-3.54,0.02-5.32c0-0.92,0.55-4.18,0.02-4.87c2.5,3.28,0.34,4.54,1.76,6.32s3.27,3.14,4.87,4.76
			c4.19,4.24,6.44,9.99,8.19,15.68c1.87-9.81-1.95-19.84-1.42-29.81c-0.16,3.03,2.02,4.77,3.6,7.11c2.47,3.66,5.38,8.18,5.51,12.69
			c0.05,1.86,0.34,3.71,0.87,5.5C70.56,174.47,69.28,174.06,69.94,174.01z"/>
		<path class="st11" d="M68.23,195.1c-3,1.28-6.69,0.94-8.87-1.79c-3.22-4.03-0.57-9.55,3.86-11.14c5.56-2,11.5,1.78,9.53,8.15
			C72.08,192.53,70.32,194.2,68.23,195.1z"/>
	</g>
	<g>
		<path class="st8" d="M679.14,39.38c1.38-2.8,0.46-6.34-1.63-8.66c-2.09-2.32-5.12-3.58-8.16-4.27c-2.61-0.59-5.3-0.82-7.97-0.66
			c-5.5,0.31-11.22,2.17-16.34,0.14c-1.2-0.48-2.35-1.16-3.62-1.37c-2.61-0.44-5.09,1.15-7.26,2.66c-2.92,2.03-5.85,4.06-8.77,6.1
			c-1.97,1.37-4.11,2.99-4.5,5.36c-0.8,4.84,6.06,8.08,6,12.99c-0.1,7.86-3.05,15.74-5.39,23.24c-0.88,2.82-1.86,5.77-1.25,8.66
			c0.66,3.14,3.13,5.66,5.96,7.16s6.04,2.14,9.19,2.76c-0.19,0.07-0.21,0.23-0.06,0.37c0.83,0.81,1.43,2.21,1.92,3.26
			c0.77,1.67,2.61,2.54,4.37,3.11c1.79,0.57,3.63,0.97,5.49,1.18c0.78,0.09,1.64,0.12,2.26-0.35c0.46-0.35,0.7-0.93,0.89-1.48
			c0.71-2.04,1.09-4.19,1.13-6.35c0.19,2.78,1.95,5.38,4.2,7.03c2.25,1.65,5.09,2.39,7.88,2.34c0.63-0.01,1.29-0.07,1.83-0.39
			c0.69-0.41,1.07-1.17,1.42-1.89c1.06-2.17,2.14-4.47,1.97-6.88c-0.16-2.24-1.38-4.24-2.57-6.14c1.82,2.49,3.92,5.74,6.85,6.72
			c1.83,0.61,3.86,0.49,5.7-0.09c4.23-1.33,7.56-5.21,8.23-9.59c0.1-0.66,0.15-1.35-0.01-2.01c-0.53-2.19-2.99-3.2-5.14-3.88
			c1.56,0.66,3.36,1.56,4.93,2.22c1.3,0.55,2.89,1.07,4.01,0.22c0.48-0.37,0.78-0.93,1.04-1.48c1.44-3,2.54-6.17,3.25-9.42
			c0.51-2.32,0.83-4.74,0.31-7.06c-0.52-2.32-2.01-4.52-4.23-5.37c0.45,0.57,1.49,0.45,2.03-0.04c0.54-0.49,0.78-1.22,0.99-1.92
			c0.59-1.96,1.19-3.95,1.23-6c0.04-2.05-0.56-4.2-2.04-5.61c-1.29-1.23-3.08-1.77-4.8-2.23C685.12,40.86,682.55,39.99,679.14,39.38
			z"/>
		<g>
			<g>
				<path class="st9" d="M679.44,39.92c2.31-5.93-3.26-10.9-8.71-11.96c-2.75-0.69-5.61-0.96-8.43-0.8
					c-4.29,0.25-8.71,1.57-13.15,1.28c-1.54-0.11-3.11-0.47-4.57-1.08c-1.43-0.62-2.56-1.22-3.69-1.17
					c-2.61,0.08-4.89,2.05-7.07,3.53c0,0-3.57,2.51-3.57,2.51s-3.57,2.51-3.57,2.51c-2,1.47-4.41,2.98-4.21,5.63
					c0.31,2.56,2.7,4.6,4.16,6.85c2.98,3.75,1.46,9.32,0.68,13.56c-1.25,5.74-3.45,11.19-5.22,16.74c-0.87,2.7-1.41,5.52-0.33,8.03
					c2.28,5.44,8.68,7.2,14.01,8.42c0.09,0.01,0.06,0.16-0.03,0.14c-5.55-1-12.08-2.64-14.67-8.25c-1.26-2.73-0.71-5.83,0.12-8.6
					c0.84-2.79,1.76-5.55,2.62-8.33c1.71-5.53,3.3-11.22,3.28-17.03c-0.07-1.43-0.73-2.76-1.56-3.94c-1.59-2.39-4.08-4.44-4.45-7.46
					c-0.38-3.16,2.47-5.34,4.79-6.91c0,0,3.59-2.49,3.59-2.49c2.16-1.41,5.02-3.63,7.24-4.9c1.27-0.71,2.68-1.3,4.18-1.3
					c1.52-0.03,2.87,0.73,4.18,1.3c2.67,1.16,5.65,1.23,8.53,0.94c5.74-0.73,11.67-1.69,17.35,0.06c4.15,1.09,8.44,3.91,9.18,8.44
					c0.26,1.44,0.12,2.98-0.54,4.3C679.52,40.06,679.4,40,679.44,39.92L679.44,39.92z"/>
			</g>
			<g>
				<path class="st9" d="M630.62,71.15c2.2,7.4,4.21,14.82,6.37,22.2c1.12,4.6,1.98,6.27,6.74,7.45c2.71,0.87,5.77,1.25,6.71-2.13
					c0.27-0.9,0.4-1.86,0.51-2.82c0.05,0.96,0.05,1.94-0.15,2.91c-0.65,3.88-4.24,3.95-7.34,3.11c-5.17-0.97-6.64-3.16-7.84-8.13
					C633.51,86.32,631.73,78.79,630.62,71.15L630.62,71.15z"/>
			</g>
			<g>
				<path class="st9" d="M638.03,61.62c3.89,9.35,10.19,22.6,14.54,31.91c1.23,2.59,2.67,5.13,4.9,6.75
					c5.17,4.02,11.3-0.12,11.3-6.27c0.07-2.86-1.06-5.66-2.58-8.14c1.78,2.31,3.1,5.1,3.28,8.13c0.28,7.02-6.71,11.83-12.77,7.36
					c-2.59-1.83-4.12-4.59-5.4-7.23C646.39,83.51,641.56,72.8,638.03,61.62L638.03,61.62z"/>
			</g>
			<g>
				<path class="st9" d="M644.65,53.75c7.27,10.16,14.55,21.04,21.38,31.47c0,0,2.59,3.99,2.59,3.99c1.56,2.53,3.4,5.25,6.68,4.94
					c3.08-0.18,5.6-2.29,7.88-4.26c1.18-1.02,2.33-2.1,3.06-3.42c1.86-3.03-0.84-5.9-3.28-7.57c5.82,3.28,5.64,7.46,0.82,11.66
					c-2.84,2.78-6.7,5.85-10.98,4.57c-2.51-0.72-4.05-3.19-5.33-5.16c0,0-2.61-3.97-2.61-3.97
					C658.05,75.54,651.02,64.49,644.65,53.75L644.65,53.75z"/>
			</g>
			<g>
				<path class="st9" d="M651.78,51.82c8.72,8.77,18.1,16.9,28.18,24.06c2.49,1.79,5.07,3.46,7.92,4.34
					c0.73,0.22,1.43,0.43,1.77,0.21c0.43-0.2,0.91-0.91,1.37-1.48c2.71-3.64,4.16-8.18,4.04-12.74c-0.16-2.81-0.34-6.73-3.35-7.96
					c0.76,0.17,1.45,0.64,1.95,1.25c1.48,1.88,1.84,4.36,2.1,6.68c0.32,4.72-0.97,9.62-3.73,13.5c-1.33,1.92-2.16,2.61-4.53,1.82
					c-3.11-0.92-5.82-2.68-8.36-4.47C669.03,69.8,659.74,61.38,651.78,51.82L651.78,51.82z"/>
			</g>
			<g>
				<path class="st9" d="M653.26,46.02c11.83,6.07,25,8.31,37.95,10.6c1.04,0.2,1.39,0.08,1.77-0.74c0.31-0.77,0.5-1.87,0.73-2.82
					c0.61-2.78,0.92-5.92-0.49-8.45c-0.9-1.72-2.53-2.66-4.41-3.08c-3.91-0.85-7.96-1.48-11.95-2.16c-8.02-1.31-16.1-2.24-24.2-2.98
					c8.15,0.15,16.28,0.85,24.36,1.91c4.06,0.52,8.04,1.18,12.1,1.99c1.02,0.25,2.08,0.59,3.02,1.22c3.84,2.59,3.95,7.84,2.92,11.86
					c-0.54,2.27-0.89,5.36-4.07,4.57C678.03,55.54,664.68,52.91,653.26,46.02L653.26,46.02z"/>
			</g>
		</g>
	</g>
	<g>
		<path class="st10" d="M374.99,84.14c3.02,0.78,6.3-0.87,8.14-3.39c1.84-2.52,2.44-5.75,2.48-8.87c0.04-2.67-0.3-5.35-1-7.94
			c-1.44-5.31-4.44-10.53-3.53-15.96c0.22-1.28,0.65-2.53,0.59-3.83c-0.11-2.64-2.17-4.74-4.1-6.55c-2.59-2.44-5.19-4.88-7.78-7.32
			c-1.75-1.64-3.78-3.4-6.18-3.29c-4.9,0.22-6.65,7.6-11.46,8.56c-7.71,1.53-16.03,0.28-23.85-0.46c-2.94-0.28-6.03-0.62-8.74,0.57
			c-2.94,1.29-4.89,4.23-5.77,7.32c-0.88,3.09-0.84,6.35-0.8,9.56c-0.11-0.17-0.27-0.15-0.38,0.02c-0.62,0.98-1.86,1.86-2.79,2.55
			c-1.48,1.1-1.95,3.08-2.13,4.91c-0.19,1.87-0.19,3.75-0.01,5.62c0.08,0.78,0.22,1.63,0.81,2.14c0.44,0.38,1.05,0.49,1.63,0.57
			c2.14,0.27,4.33,0.2,6.45-0.21c-2.68,0.76-4.86,3.03-6.01,5.57s-1.28,5.47-0.66,8.19c0.14,0.62,0.34,1.25,0.76,1.71
			c0.54,0.59,1.37,0.81,2.14,1c2.34,0.59,4.82,1.17,7.13,0.5c2.15-0.62,3.86-2.23,5.47-3.79c-2.06,2.3-4.8,5.03-5.15,8.09
			c-0.22,1.92,0.32,3.88,1.27,5.56c2.18,3.87,6.66,6.31,11.09,6.07c0.67-0.04,1.35-0.14,1.96-0.43c2.03-0.97,2.51-3.59,2.73-5.83
			c-0.32,1.67-0.83,3.61-1.15,5.28c-0.27,1.38-0.44,3.05,0.62,3.97c0.46,0.4,1.07,0.57,1.66,0.71c3.23,0.79,6.56,1.2,9.89,1.23
			c2.37,0.02,4.81-0.17,6.97-1.16s4.01-2.91,4.38-5.25c-0.47,0.56-0.13,1.55,0.46,1.98s1.36,0.51,2.09,0.57
			c2.04,0.18,4.11,0.35,6.12-0.04s3.99-1.41,5.07-3.15c0.94-1.52,1.09-3.38,1.19-5.16C374.78,90.3,375.09,87.61,374.99,84.14z"/>
		<g>
			<g>
				<path class="st0" d="M374.52,84.54c6.26,1.04,10-5.47,9.9-11c0.11-2.83-0.22-5.69-0.97-8.41c-1.13-4.14-3.34-8.2-3.97-12.6
					c-0.21-1.53-0.18-3.14,0.11-4.69c0.31-1.52,0.66-2.75,0.38-3.86c-0.62-2.54-3.02-4.36-4.92-6.19c0,0-3.2-2.97-3.2-2.97
					l-3.2-2.97c-1.85-1.66-3.83-3.69-6.38-2.95c-2.44,0.84-3.94,3.6-5.84,5.49c-3.05,3.69-8.82,3.36-13.13,3.47
					c-5.88-0.04-11.66-1.06-17.46-1.64c-2.82-0.3-5.7-0.24-7.93,1.34c-4.85,3.36-5.24,9.98-5.33,15.45c0.01,0.09-0.14,0.09-0.14,0
					c-0.17-5.64,0.08-12.37,5.04-16.06c2.41-1.8,5.56-1.9,8.43-1.66c2.9,0.24,5.79,0.57,8.69,0.84c5.77,0.53,11.66,0.9,17.34-0.32
					c1.38-0.37,2.55-1.29,3.53-2.34c2.01-2.05,3.5-4.91,6.37-5.9c3.01-1.03,5.73,1.31,7.75,3.26c0,0,3.18,2.99,3.18,2.99
					c1.82,1.82,4.6,4.16,6.29,6.06c0.96,1.09,1.83,2.35,2.13,3.82c0.34,1.48-0.12,2.96-0.41,4.35c-0.58,2.85-0.03,5.79,0.84,8.54
					c1.9,5.46,4.07,11.07,3.54,16.98c-0.2,4.29-2.08,9.06-6.36,10.73c-1.36,0.55-2.89,0.73-4.32,0.36
					C374.4,84.66,374.44,84.52,374.52,84.54L374.52,84.54z"/>
			</g>
			<g>
				<path class="st0" d="M333.86,43.26c-6.79,3.68-13.62,7.19-20.4,10.83c-4.26,2.05-5.72,3.24-5.89,8.14
					c-0.29,2.83-0.02,5.91,3.47,6.12c0.94,0.08,1.9,0.01,2.86-0.08c-0.93,0.24-1.89,0.45-2.88,0.46c-3.93,0.17-4.74-3.33-4.56-6.53
					c-0.12-5.25,1.72-7.15,6.33-9.35C319.62,49.23,326.61,45.93,333.86,43.26L333.86,43.26z"/>
			</g>
			<g>
				<path class="st0" d="M344.71,48.53c-8.34,5.74-20,14.65-28.21,20.83c-4.31,2.93-8.89,8.95-4.77,13.73
					c4.27,4.46,11.27,1.99,15.08-1.99c-3.7,4.67-10.95,7.44-15.86,2.75c-5.02-5.31-0.11-12.31,4.68-15.61
					C325.03,61.24,334.5,54.31,344.71,48.53L344.71,48.53z"/>
			</g>
			<g>
				<path class="st0" d="M353.78,53.38c-8.43,9.22-17.57,18.59-26.36,27.44c0,0-3.37,3.36-3.37,3.36c-2.15,2.06-4.43,4.41-3.45,7.55
					c0.81,2.98,3.4,5.01,5.8,6.83c4.81,3.87,8.25,3.35,10.71-2.5c-2,6.38-6.13,7.06-11.24,3.22c-3.3-2.2-7.11-5.34-6.75-9.8
					c0.19-2.6,2.28-4.63,3.94-6.28c0,0,3.35-3.38,3.35-3.38C335.25,71,344.59,61.83,353.78,53.38L353.78,53.38z"/>
			</g>
			<g>
				<path class="st0" d="M357.14,59.95c-6.78,10.35-12.79,21.21-17.7,32.56c-1.23,2.81-2.33,5.68-2.6,8.65
					c-0.06,0.76-0.12,1.49,0.16,1.78c0.28,0.38,1.08,0.7,1.73,1.03c4.13,1.9,8.86,2.38,13.3,1.32c2.72-0.73,6.52-1.72,7.09-4.93
					c-0.28,3.36-4.19,4.66-6.92,5.6c-4.94,1.41-10.47,0.98-15.08-1.37c-6.28-2.25,7.21-25.21,9.5-29.26
					C349.82,69.99,353.28,64.81,357.14,59.95L357.14,59.95z"/>
			</g>
			<g>
				<path class="st0" d="M363.13,60.2c-3.49,12.83-2.95,26.18-2.51,39.32c0.02,1.06,0.21,1.38,1.09,1.57
					c0.82,0.14,1.94,0.1,2.91,0.13c2.84,0.02,5.99-0.32,8.16-2.23c1.5-1.24,2.08-3.03,2.1-4.95c0.02-4-0.2-8.1-0.36-12.14
					c-0.39-8.12-1.15-16.21-2.09-24.29c1.54,8,2.54,16.1,3.18,24.22c0.33,4.08,0.51,8.11,0.56,12.25c-0.03,1.05-0.15,2.16-0.56,3.21
					c-1.74,4.29-6.85,5.49-11,5.31c-2.33-0.06-5.42,0.24-5.31-3.04C358.95,86.4,358.76,72.8,363.13,60.2L363.13,60.2z"/>
			</g>
		</g>
	</g>
	<g>
		<g>
			<path class="st10" d="M825.55,37.6c-2.47,5.6-1.67,19.27,1.06,24.79c1.39,2.81,3.87,4.95,6.51,6.63
				c4.41,2.81,9.64,4.61,14.85,4.1c9.11-0.89,10.28-8.46,16.82-12.79c5.37-3.55,12.51-1.5,18.57,0.66
				c17.16,6.13,34.5,12.43,49.59,22.65c4.13,2.8,8.38,6.4,9.01,11.34c0.48,3.72-1.24,7.45-0.87,11.18
				c0.69,6.97,8.28,11.2,15.22,12.06c7.68,0.95,16.26-1.16,20.87-7.37c5.1-6.86,3.89-16.88-0.64-24.13
				c-4.53-7.25-11.75-12.34-18.84-17.12c-20.88-14.11-42.64-27.44-66.34-36.28c-17.47-6.52-51.47-19.33-64.28,1.37L825.55,37.6z"/>
			<path class="st12" d="M761.27,32.28c3.59-7.03,8.06-14.56,15.57-16.98c9.23-2.97,19.25,3.69,20.25,13.32
				c0.37,3.57-0.78,7.59-3.87,9.41c-0.74,0.43-1.59,0.73-2.44,0.6c-2.22-0.33-3.04-3.17-2.74-5.39c1.94-14.19,23.55-12.1,22.31,1.89
				c-0.27,3.04-2.46,6.31-5.51,6.21c-4-0.13-0.82-9.98,0.12-11.33c4.43-6.41,26.46-5.65,22.22,3.98"/>
			<g>
				<path class="st6" d="M945.32,82.34c-19.61-11.38-39.77-22.19-61.19-29.76c-3.03-1.2-6.17-2-9.26-3.08
					C899.93,53.89,925.17,67.05,945.32,82.34L945.32,82.34z"/>
			</g>
		</g>
		<g>
			<path class="st7" d="M966.7,113.22c-7.81-0.87-15.83-6.16-20.21-12.61c0,0,0.13-0.18,0.13-0.18c4.85,3.46,9.79,6.77,14.94,9.76
				c1.72,0.98,3.46,1.95,5.23,2.83C966.79,113.02,966.7,113.22,966.7,113.22L966.7,113.22z"/>
		</g>
		<g>
			<path class="st7" d="M853.38,63.35c-9.96-0.89-20.58-8.12-23.82-17.77c0,0,0.18-0.12,0.18-0.12c4.25,6.22,10.37,10.9,16.91,14.53
				c2.2,1.19,4.46,2.28,6.8,3.16L853.38,63.35L853.38,63.35z"/>
		</g>
	</g>
	<g>
		<path class="st3" d="M189.87,77.37c5.51,8.3,7.04,18.89,4.65,28.54c-1.29,5.21-4.1,10.18-8.46,13.32
			c-7.54,5.43-18.57,3.17-25.1-2.85c-3.03-2.8-5.45-6.35-9.02-8.41c-8.67-5-20.61,0.51-28.47-6.41c-4.28-3.77-5.11-10.2-4.25-15.84
			c4.49-29.58,35.74-30.6,57.64-19.8C182.31,68.6,186.7,72.6,189.87,77.37z"/>
		<path class="st3" d="M209.53,78.16c-2.66,1.04-5.16,2.8-6.45,5.35s-1.1,5.95,0.95,7.94c0.95,0.92,2.19,1.47,3.44,1.89
			c3.57,1.19,7.52,1.4,11.09,0.22c3.57-1.18,6.71-3.82,8.17-7.29C231.18,75.62,215.75,75.72,209.53,78.16z"/>
		<path class="st3" d="M187.59,62.48c-0.07,0.95-0.02,1.94,0.43,2.77c0.64,1.2,1.96,1.87,3.25,2.27c4.1,1.28,8.78,0.56,12.31-1.89
			c5.39-3.75,7.39-14.47-1.06-16.1C195.73,48.22,188.03,56.22,187.59,62.48z"/>
		<path class="st3" d="M164.08,35.02c-2.32,0.97-4.07,2.94-5.41,5.06c-1.97,3.11-3.24,6.91-2.38,10.49
			c0.86,3.58,4.41,6.64,8.04,6.01c3.5-0.61,5.68-4.09,7.09-7.35c0.99-2.28,1.84-4.68,1.89-7.16
			C173.42,36.9,169.38,32.81,164.08,35.02z"/>
		<path class="st3" d="M135.75,33.16c-2.98-1.71-7.03-0.26-9.06,2.5c-2.03,2.77-2.37,6.45-1.93,9.85c0.43,3.37,1.66,6.82,4.29,8.98
			c2.62,2.16,6.86,2.57,9.32,0.22c1.42-1.36,2.03-3.33,2.56-5.22c0.78-2.77,1.51-5.67,0.93-8.48c-0.61-2.95-2.61-5.47-5.03-7.26"/>
	</g>
	<g>
		<path class="st10" d="M769.49,184.89c8.51,7.13,13.49,17.98,13.98,29.04c0.26,5.98-1.18,12.18-4.85,16.91
			c-6.35,8.18-18.85,9.25-27.73,4.87c-4.12-2.03-7.83-5.07-12.3-6.15c-10.84-2.61-21.87,7.05-32.46,2.13
			c-5.77-2.68-8.68-9.3-9.54-15.6c-4.53-33.04,28.55-43.99,55.38-39.36C758.64,177.89,764.6,180.79,769.49,184.89z"/>
		<path class="st10" d="M790.76,179.53c-2.51,1.95-4.63,4.62-5.21,7.75c-0.58,3.13,0.71,6.71,3.52,8.19c1.3,0.68,2.8,0.89,4.27,0.94
			c4.19,0.15,8.48-0.88,11.93-3.26c3.45-2.39,5.98-6.2,6.43-10.37C813.11,169.98,796.64,174.96,790.76,179.53z"/>
		<path class="st10" d="M762.35,169.68c0.23,1.03,0.59,2.08,1.33,2.83c1.06,1.08,2.68,1.38,4.19,1.4c4.79,0.08,9.57-2.17,12.57-5.91
			c4.58-5.71,3.34-17.81-6.21-16.88C766.56,151.88,760.85,162.85,762.35,169.68z"/>
		<path class="st10" d="M728.56,147.75c-2.17,1.76-3.42,4.43-4.19,7.12c-1.12,3.95-1.29,8.41,0.76,11.97
			c2.05,3.56,6.81,5.71,10.49,3.89c3.55-1.75,4.78-6.16,5.27-10.09c0.34-2.75,0.49-5.58-0.24-8.26
			C739.14,146.81,733.53,143.7,728.56,147.75z"/>
		<path class="st10" d="M697.68,154.69c-3.72-0.89-7.6,1.94-8.9,5.53c-1.29,3.6-0.49,7.64,1.04,11.15c1.52,3.47,3.93,6.77,7.42,8.25
			c3.49,1.49,8.15,0.58,10.03-2.7c1.09-1.9,1.12-4.2,1.09-6.39c-0.04-3.2-0.17-6.54-1.68-9.36c-1.58-2.96-4.52-5.02-7.67-6.18"/>
	</g>
	<g>
		<path class="st1" d="M236.53,201.49c3.86-3.22,5.26-8.5,5.94-13.48c0.69-4.98,0.91-10.18,3.21-14.65"/>
		<path class="st13" d="M219.85,221.44c-1.5,2.39-2.93,4.92-3.37,7.71c-1.14,7.1,4.34,13.72,10.6,17.24
			c1.24,0.7,2.54,1.32,3.94,1.55c3.79,0.6,7.33-1.8,10.41-4.09c1.46-1.09,2.95-2.2,4.03-3.68c2.21-3.02,2.37-7.1,1.7-10.78
			c-1.07-5.92-5.31-15.44-11.37-18C228.81,208.47,223.13,216.24,219.85,221.44z"/>
		<path class="st10" d="M221.66,222.64c-1.28,2.03-2.49,4.18-2.87,6.55c-0.97,6.03,3.69,11.66,9.01,14.66
			c1.05,0.59,2.16,1.13,3.35,1.31c3.22,0.51,6.23-1.53,8.85-3.47c1.24-0.93,2.51-1.87,3.42-3.13c1.88-2.57,2.01-6.03,1.45-9.16
			c-0.91-5.04-4.51-13.13-9.66-15.3C229.28,211.61,224.45,218.21,221.66,222.64z"/>
		<path class="st13" d="M243.32,190.25c2.02-7.65,5.68-15.7,12.88-18.97c2.15-0.98,4.71-1.45,6.87-0.49
			c1.53,0.68,2.7,2.01,3.44,3.52c1.25,2.57,1.25,5.72,0,8.29c-1.04,2.14-2.83,3.81-4.58,5.42c-4.88,4.48-10.53,9.12-15.55,13.59
			c-2.94,2.62-4.52,2.73-5.34,3.19C240.88,204.88,242.22,194.4,243.32,190.25z"/>
		<path class="st13" d="M243.35,161.91c-0.73-1.96-1.91-3.84-3.72-4.89c-3.94-2.29-9.28,0.4-11.39,4.44s-1.85,8.86-1.41,13.4
			c0.31,3.22,2.05,12.46,3.12,17.64c0.63,3.06,1.7,20.26,7.42-0.08C239.79,183.8,246.12,169.41,243.35,161.91z"/>
		<path class="st13" d="M222.36,186.95c-1.06-4.17-2.68-8.11-5.11-11.38c-2.49-3.35-6.35-5.95-10.52-5.9
			c-3.71,0.04-5.97,2.71-6.18,6.4c-0.45,8.09,5.17,11.38,10.65,15.93c2.58,2.14,4.7,4.73,7.02,7.13c0.44,0.46,5.96,5.48,5.96,4.39
			C224.17,198.31,223.75,192.44,222.36,186.95z"/>
		<g>
			<path class="st10" d="M190.95,197c-3.7,0.59-4.7,6-1.77,8.15c5.54,4.01,12.01-0.45,11.26-7.05
				c-1.84-14.25-21.01-12.93-23.42,0.29c-2.21,12.56,10.97,19.98,20.92,24c4.37,1.75,8.9,3.14,13.42,4.59l-0.04,0.13
				c-9.24-2.15-18.65-4.67-26.53-10.24c-3.93-2.79-7.58-6.55-8.79-11.38c-1.25-4.77-0.27-10.18,3.02-13.92
				c7.41-8.2,21.01-5.06,22.12,6.48c0.15,2.42-0.47,4.99-2.16,6.83c-2.59,2.7-7.19,2.95-10.02,0.53c-1.95-1.58-2.32-4.54-0.94-6.61
				c0.63-1.03,1.71-1.8,2.92-1.94C190.93,196.86,190.95,197,190.95,197L190.95,197z"/>
		</g>
		<g>
			<path class="st10" d="M272.99,199.64c3.92,0.55,5.01,6.24,1.98,8.55c-2.83,2.42-7.43,2.16-10.02-0.53
				c-1.69-1.84-2.32-4.41-2.16-6.83c1.1-11.54,14.7-14.68,22.12-6.48c3.3,3.74,4.27,9.15,3.02,13.92
				c-1.22,4.83-4.86,8.59-8.79,11.38c-7.88,5.57-17.29,8.09-26.53,10.24c0,0-0.04-0.13-0.04-0.13c4.51-1.45,9.04-2.84,13.42-4.59
				c9.94-4.01,23.14-11.44,20.92-24c-2.42-13.22-21.59-14.54-23.42-0.29c-0.75,6.6,5.72,11.05,11.26,7.05
				c2.93-2.15,1.94-7.57-1.77-8.15C272.98,199.78,272.99,199.64,272.99,199.64L272.99,199.64z"/>
		</g>
		<g>
			<path class="st10" d="M204,208.89c-0.93-0.45-2.11-0.3-2.9,0.37c-1.04,0.88-1.23,2.57-0.49,3.71"/>
			<path class="st10" d="M200.75,213.17c0.81,1.03,2.31,1.44,3.55,1.02c1.72-0.57,2.73-2.74,1.98-4.39
				c-0.75-1.65-3.16-2.28-4.56-1.13"/>
			<g>
				<path class="st10" d="M200.36,210.62c-1.36,3.77,1.47,7.49,4.73,9.13c1.65,0.9,3.5,1.43,5.26,2.22
					c1.76,0.77,3.47,1.49,5.38,1.91c0,0,0,0.14,0,0.14c-4.97,0.66-13.08-3.04-15.32-7.66c-0.86-1.81-1.09-4.01-0.18-5.79
					L200.36,210.62L200.36,210.62z"/>
			</g>
		</g>
		<g>
			<path class="st10" d="M213.59,201.76c-0.66-0.79-1.81-1.14-2.8-0.85c-1.31,0.38-2.18,1.84-1.97,3.19"/>
			<path class="st10" d="M208.88,204.33c0.32,1.27,1.51,2.26,2.82,2.39c1.8,0.18,3.61-1.38,3.61-3.19c-0.01-1.81-1.95-3.37-3.7-2.9"
				/>
			<g>
				<path class="st10" d="M209.56,201.84c-2.79,2.88-1.73,7.43,0.57,10.26c1.13,1.5,2.61,2.74,3.89,4.18
					c1.29,1.42,2.56,2.78,4.13,3.95c0,0-0.06,0.13-0.06,0.13c-4.81-1.43-10.69-8.14-10.83-13.27c-0.04-2,0.65-4.1,2.21-5.36
					C209.47,201.74,209.56,201.84,209.56,201.84L209.56,201.84z"/>
			</g>
		</g>
		<g>
			<path class="st10" d="M261.54,211.85c0.95-0.41,2.13-0.21,2.88,0.5c1,0.93,1.12,2.62,0.32,3.73"/>
			<path class="st10" d="M264.59,216.27c-0.85,0.99-2.37,1.34-3.6,0.86c-1.69-0.65-2.61-2.86-1.79-4.47
				c0.82-1.61,3.26-2.13,4.61-0.93"/>
			<g>
				<path class="st10" d="M265.23,213.69c1.69,3.9-1.31,8.15-4.74,9.94c-3.47,1.87-7.36,3.5-11.34,2.81c0,0,0-0.14,0-0.14
					c1.93-0.34,3.67-0.98,5.46-1.67c3.48-1.28,7.5-2.16,9.58-5.51c1.01-1.54,1.53-3.54,0.91-5.38
					C265.1,213.74,265.23,213.69,265.23,213.69L265.23,213.69z"/>
			</g>
		</g>
		<g>
			<path class="st10" d="M251.63,204.54c0.66-0.79,1.81-1.14,2.8-0.85c1.31,0.38,2.18,1.84,1.97,3.19"/>
			<path class="st10" d="M256.34,207.11c-0.32,1.27-1.51,2.26-2.82,2.39c-1.8,0.18-3.61-1.38-3.61-3.19c0.01-1.81,1.95-3.37,3.7-2.9
				"/>
			<g>
				<path class="st10" d="M255.75,204.52c3.27,2.73,2.5,7.87,0.25,11.01c-2.25,3.23-4.99,6.44-8.86,7.62c0,0-0.06-0.13-0.06-0.13
					c1.57-1.17,2.84-2.53,4.13-3.95c2.53-2.71,5.72-5.31,6.07-9.23c0.21-1.83-0.22-3.85-1.61-5.21
					C255.66,204.62,255.75,204.52,255.75,204.52L255.75,204.52z"/>
			</g>
		</g>
	</g>
	<g>
		<path class="st1" d="M542.13,217.96c2.78-2.32,3.79-6.12,4.28-9.71c0.49-3.59,0.66-7.33,2.31-10.55"/>
		<path class="st14" d="M530.12,232.33c-1.08,1.72-2.11,3.54-2.43,5.55c-0.82,5.11,3.12,9.88,7.64,12.42
			c0.89,0.5,1.83,0.95,2.84,1.11c2.73,0.43,5.28-1.29,7.5-2.94c1.05-0.78,2.12-1.59,2.9-2.65c1.59-2.17,1.7-5.11,1.22-7.76
			c-0.77-4.27-3.82-11.12-8.19-12.96C536.57,222.98,532.48,228.58,530.12,232.33z"/>
		<path class="st3" d="M531.42,233.19c-0.92,1.46-1.79,3.01-2.06,4.72c-0.7,4.35,2.66,8.4,6.49,10.55c0.76,0.43,1.55,0.81,2.41,0.95
			c2.32,0.37,4.49-1.1,6.37-2.5c0.9-0.67,1.81-1.35,2.46-2.25c1.35-1.85,1.45-4.34,1.04-6.6c-0.66-3.63-3.25-9.45-6.96-11.01
			C536.91,225.24,533.43,230,531.42,233.19z"/>
		<path class="st14" d="M547.02,209.87c1.46-5.51,4.09-11.31,9.28-13.66c1.55-0.71,3.39-1.04,4.95-0.35
			c1.1,0.49,1.95,1.45,2.47,2.53c0.9,1.85,0.9,4.12,0,5.97c-0.75,1.54-2.04,2.74-3.3,3.9c-3.51,3.23-7.58,6.57-11.19,9.79
			c-2.12,1.89-3.26,1.97-3.84,2.3C545.26,220.4,546.23,212.86,547.02,209.87z"/>
		<path class="st14" d="M547.04,189.46c-0.52-1.41-1.38-2.76-2.68-3.52c-2.84-1.65-6.68,0.29-8.2,3.2
			c-1.52,2.91-1.33,6.38-1.02,9.65c0.22,2.32,1.48,8.97,2.25,12.7c0.45,2.21,1.22,14.59,5.34-0.06
			C544.48,205.22,549.04,194.85,547.04,189.46z"/>
		<path class="st14" d="M531.92,207.49c-0.76-3-1.93-5.84-3.68-8.2c-1.79-2.41-4.57-4.28-7.58-4.25c-2.67,0.03-4.3,1.95-4.45,4.61
			c-0.32,5.82,3.72,8.19,7.67,11.47c1.85,1.54,3.39,3.4,5.05,5.14c0.32,0.33,4.29,3.95,4.29,3.16
			C533.23,215.67,532.93,211.44,531.92,207.49z"/>
		<g>
			<path class="st3" d="M509.3,214.73c-2.67,0.42-3.38,4.32-1.27,5.87c3.93,2.91,8.69-0.38,8.11-5.07c-0.8-7.7-10-9.72-14.82-4.18
				c-4.62,5.82-1.58,13.08,4.14,16.88c5.33,4.13,12.37,5.9,18.51,8.18c-8.22-1.96-17.16-4.29-22.98-10.89
				c-3.52-4.02-3.9-10.62-0.28-14.71c2.38-2.65,6.19-3.94,9.65-3.04c5.2,1.25,8.39,8.36,4.71,12.62c-1.86,1.94-5.18,2.13-7.21,0.39
				c-1.4-1.14-1.67-3.27-0.68-4.76c0.45-0.74,1.23-1.3,2.1-1.4C509.29,214.63,509.3,214.73,509.3,214.73L509.3,214.73z"/>
		</g>
		<g>
			<path class="st3" d="M568.38,216.63c1.81,0.22,2.9,2.2,2.67,3.9c-0.21,1.8-1.91,3.06-3.61,3.36c-3.87,0.8-6.82-2.7-6.42-6.4
				c0.73-8.26,10.64-10.58,15.92-4.67c3.62,4.09,3.25,10.69-0.28,14.71c-5.82,6.6-14.75,8.92-22.98,10.89
				c6.15-2.29,13.19-4.05,18.51-8.18c5.72-3.8,8.76-11.07,4.14-16.88c-2.13-2.46-5.69-3.73-8.89-2.94
				c-4.8,1.05-7.91,7.72-4.58,11.72c2.14,2.48,7.34,1.92,7.97-1.62c0.24-1.62-0.77-3.54-2.49-3.78
				C568.37,216.73,568.38,216.63,568.38,216.63L568.38,216.63z"/>
		</g>
		<g>
			<path class="st3" d="M518.7,223.29c-0.67-0.32-1.52-0.22-2.09,0.26c-0.75,0.63-0.89,1.85-0.35,2.67"/>
			<path class="st3" d="M516.36,226.37c0.58,0.74,1.66,1.04,2.56,0.74c1.24-0.41,1.97-1.97,1.43-3.16
				c-0.54-1.19-2.28-1.64-3.29-0.82"/>
			<g>
				<path class="st3" d="M516.08,224.53c-0.98,2.71,1.06,5.39,3.4,6.57c1.19,0.64,2.52,1.04,3.79,1.6c1.27,0.55,2.5,1.07,3.88,1.38
					c0,0,0,0.1,0,0.1c-3.7,0.43-9.31-2.12-11.03-5.52c-0.62-1.3-0.78-2.89-0.13-4.17L516.08,224.53L516.08,224.53z"/>
			</g>
		</g>
		<g>
			<path class="st3" d="M525.61,218.15c-0.48-0.57-1.3-0.82-2.01-0.62c-0.94,0.27-1.57,1.32-1.42,2.29"/>
			<path class="st3" d="M522.21,220c0.23,0.91,1.09,1.63,2.03,1.72c1.3,0.13,2.6-0.99,2.6-2.3c0-1.3-1.4-2.43-2.66-2.09"/>
			<g>
				<path class="st3" d="M522.71,218.21c-2.01,2.07-1.24,5.35,0.41,7.39c0.82,1.07,1.87,1.98,2.8,3.01c0.93,1.03,1.84,2,2.97,2.85
					l-0.04,0.09c-3.55-1.13-7.63-5.74-7.8-9.55c-0.03-1.44,0.47-2.96,1.59-3.86C522.64,218.13,522.71,218.21,522.71,218.21
					L522.71,218.21z"/>
			</g>
		</g>
		<g>
			<path class="st3" d="M560.14,225.42c0.68-0.29,1.53-0.15,2.08,0.36c0.72,0.67,0.8,1.89,0.23,2.69"/>
			<path class="st3" d="M562.33,228.6c-0.61,0.71-1.71,0.96-2.59,0.62c-1.22-0.47-1.88-2.06-1.29-3.22s2.35-1.54,3.32-0.67"/>
			<g>
				<path class="st3" d="M562.79,226.74c2.16,5.87-6.86,9.92-11.58,9.18c0,0,0-0.1,0-0.1c1.39-0.24,2.64-0.71,3.93-1.2
					c2.51-0.92,5.4-1.56,6.9-3.97c0.73-1.11,1.1-2.55,0.65-3.87C562.7,226.78,562.79,226.74,562.79,226.74L562.79,226.74z"/>
			</g>
		</g>
		<g>
			<path class="st3" d="M553,220.15c0.48-0.57,1.3-0.82,2.01-0.62c0.94,0.27,1.57,1.32,1.42,2.29"/>
			<path class="st3" d="M556.4,222.01c-0.23,0.91-1.09,1.63-2.03,1.72c-1.3,0.13-2.6-0.99-2.6-2.3c0-1.3,1.4-2.43,2.66-2.09"/>
			<g>
				<path class="st3" d="M555.97,220.14c4.57,4.27-1.66,11.95-6.21,13.41c0,0-0.04-0.09-0.04-0.09c1.13-0.84,2.04-1.82,2.97-2.85
					c1.82-1.95,4.12-3.82,4.37-6.65c0.15-1.32-0.16-2.77-1.16-3.75L555.97,220.14L555.97,220.14z"/>
			</g>
		</g>
	</g>
</g>
</svg>
