<?xml version="1.0" encoding="utf-8"?>
<!-- Generator: Adobe Illustrator 26.1.0, SVG Export Plug-In . SVG Version: 6.00 Build 0)  -->
<svg version="1.1" id="Layer_1" xmlns="http://www.w3.org/2000/svg" xmlns:xlink="http://www.w3.org/1999/xlink" x="0px" y="0px"
	 viewBox="0 0 288 216" style="enable-background:new 0 0 288 216;" xml:space="preserve">
<style type="text/css">
	.st0{display:none;fill:none;stroke:#64B6BF;stroke-width:0.5;stroke-miterlimit:10;}
	.st1{display:none;fill:none;stroke:#64B6BF;stroke-width:0.5037;stroke-miterlimit:10;}
	.st2{display:none;fill:#64B6BF;}
	.st3{opacity:0.8;}
	.st4{fill:#64B6BF;}
	.st5{fill:#F17E63;stroke:#F17E63;stroke-miterlimit:10;}
</style>
<g>
	<g>
		<path class="st5" d="M89.42,124.05c10.94,0,15.71-9.35,15.71-20.78c0-15.61-12.93-26.65-12.93-37.69
			c0-10.74,8.35-15.02,15.02-15.02c6.96,0,11.14,4.28,11.14,10.24c0,6.17-3.88,9.35-8.25,9.35c-1.89,0-3.88-0.99-3.88-2.88
			c0-1.29,0.8-2.19,2.09-2.19c2.09,0,2.19,2.68,3.78,2.68c1.89,0,4.47-2.19,4.47-6.86c0-4.97-3.58-7.66-8.75-7.66
			c-5.57,0-9.84,3.28-9.84,10.14c0,10.84,15.81,21.88,15.81,37.99c0,16.71-10.34,25.46-23.67,25.46c-10.94,0-21.08-6.26-21.08-17.2
			c0-9.05,5.87-16.01,14.22-16.01c4.28,0,7.26,1.89,8.85,4.08c1.29,1.79,1.89,4.08,1.89,5.47c0,0.5-0.2,0.7-0.4,0.7
			c-0.3,0-0.5-0.2-0.5-0.7c0-1.39-2.39-4.97-6.56-4.97c-5.37,0-10.54,4.97-10.54,13.03C76,117.89,81.76,124.05,89.42,124.05z"/>
	</g>
	<g>
		<path class="st5" d="M147.65,118.89c-3.17,8.8-6.57,17.9-10.33,25.82c10.92,11.74,21.25,26.7,30.87,26.7
			c6.22,0,8.33-2.2,10.21-5.28c0.59-1.03,1.06-1.61,1.53-1.61c0.47,0,0.7,0.29,0.7,0.88s-0.35,1.76-0.82,3.08
			c-2.11,6.02-6.22,14.09-14.79,14.09c-9.63,0-19.49-19.51-29.7-33.89c-5.63,10.56-12.21,18.19-20.54,18.19
			c-8.45,0-14.91-7.78-14.91-18.05c0-11.59,7.63-17.75,15.85-17.75c5.52,0,10.8,3.38,16.08,8.07c3.4-6.75,6.57-14.82,9.86-22.89
			c-2.23-1.03-4.46-1.76-6.34-1.76c-2.11,0-2.82,1.91-3.4,1.91c-0.35,0-0.59-0.29-0.59-0.73c0-1.47,3.64-4.55,5.87-4.55
			c2,0,3.99,0.44,6.1,1.17c2.93-7.04,5.87-14.38,8.8-19.81l2-3.67c-6.22-3.67-12.33-7.92-18.9-7.92c-7.75,0-12.33,6.02-12.33,13.65
			c0,6.31,2.93,9.54,6.34,9.83c0.35,0,0.59,0.15,0.59,0.59c0,0.44-0.35,0.73-1.17,0.73c-1.17,0-3.99-0.59-5.87-2.05
			c-3.64-2.79-6.1-7.63-6.1-13.79c0-9.68,6.34-17.9,16.08-17.9c8.92,0,16.55,7.63,23.83,13.21c4.11-5.58,8.57-8.66,12.91-8.66
			c5.17,0,8.1,3.52,8.1,8.22c0,4.84-3.64,9.39-9.27,9.39c-3.4,0-6.57-1.17-9.86-2.93c-1.06,2.05-2,4.11-2.93,6.46
			c-2,4.84-3.99,10.12-5.99,15.85h2c1.41,0,3.76-0.59,5.4-1.76c1.88-1.32,2.35-2.2,2.82-2.2c0.23,0,0.47,0.15,0.47,0.59
			c0,0.59-0.47,1.76-0.7,2.35c-1.76,4.4-3.99,7.48-7.4,7.48C150.82,119.92,149.29,119.48,147.65,118.89z M130.28,142.22
			c-4.46-5.14-9.04-8.66-13.62-8.66c-6.22,0-11.27,5.28-11.27,12.91c0,6.02,4.23,10.42,9.51,10.42
			C120.53,156.89,125.58,150.88,130.28,142.22z M160.33,87.78c2.94,1.91,5.99,3.08,9.04,3.08c4.11,0,6.69-2.79,6.69-5.87
			c0-4.11-3.05-5.43-6.22-5.43C166.31,79.57,163.26,82.79,160.33,87.78z"/>
	</g>
	<g>
		<path class="st5" d="M163.03,131.13h4.42c4.23,0,6.81,3.42,6.81,8.82c0,7.05-3.5,12.19-9.17,12.19h-5.55L163.03,131.13z
			 M161.02,150.7h3.95c5.08,0,7.94-4.47,7.97-10.75c0-4.5-1.99-7.38-5.65-7.38h-3.26L161.02,150.7z"/>
		<path class="st5" d="M186.62,141.7h-7.89l-1.47,9h9.03l-0.43,1.44h-10.09l3.5-21.01h9.6l-0.21,1.44h-8.37l-1.3,7.68h7.87
			L186.62,141.7z"/>
		<path class="st5" d="M189.72,146.26c0.24,3.27,1.8,4.77,4.3,4.77c2.41,0,4.14-1.56,4.14-4.5c0-2.1-0.69-3.45-3.66-4.98
			c-2.86-1.47-3.88-2.79-3.88-5.13c0-2.88,1.61-5.58,5.01-5.58c3.59,0,4.85,2.79,4.82,5.61h-1.21c-0.24-2.7-1.3-4.17-3.78-4.17
			c-2.48,0-3.55,2.01-3.55,3.93c0,1.65,0.52,2.67,3.21,4.02c3.45,1.68,4.35,3.57,4.35,6.06c0,3.24-1.68,6.15-5.63,6.15
			c-3.62,0-5.32-2.67-5.39-6.18H189.72z"/>
		<path class="st5" d="M206.29,131.13l-3.5,21.01h-1.25l3.5-21.01H206.29z"/>
		<path class="st5" d="M219.36,152.14h-1.06c0.07-0.81,0.33-2.58,0.54-3.78c-1.04,2.25-2.46,4.02-5.7,4.02
			c-3.78,0-5.67-3.51-5.67-8.28c0-6.57,2.91-13.27,8.67-13.27c3.43,0,5.65,2.49,5.74,6.21h-1.18c-0.26-2.7-1.7-4.77-4.77-4.77
			c-4.51,0-7.16,5.55-7.16,11.59c0,3.9,1.37,7.11,4.61,7.11c4.02,0,5.65-3.93,6.36-8.37l0.02-0.12h-5.48l0.21-1.41h6.71
			L219.36,152.14z"/>
		<path class="st5" d="M222.88,152.14l3.5-21.01h1.63c1.58,4.8,5.72,17.23,6.26,19.21h0.02c0.26-2.64,0.97-6.33,1.54-9.75l1.58-9.45
			h1.25l-3.5,21.01h-1.58c-1.51-4.59-5.65-17.23-6.31-19.48h-0.02c-0.33,2.76-0.9,6-1.54,9.78l-1.58,9.69H222.88z"/>
	</g>
	<g>
		<g>
			<g>
				<g>
					<g class="st3">
						<g>
							<path class="st4" d="M213.88,84.28c-0.88-3.33-2.04-6.5-3.27-9.57c-1.32-3.03-2.7-5.99-4.34-8.76
								c-3.18-5.61-7.06-10.66-11.46-15.28c-6.8-7.2-14.13-13.26-22.41-18.19c-8.27-4.9-17.53-8.66-28.04-10.43
								c-5.19-0.9-10.3-1.28-15.36-1.17c-5.06,0.09-10.08,0.62-15.15,1.61c-10.27,1.66-20.83,5.41-30.57,11.42
								C73.55,39.9,64.7,48.14,57.86,58.06c-0.2,0.26-0.45,0.57-0.73,0.93c-0.26,0.37-0.55,0.79-0.85,1.23
								c-0.59,0.89-1.27,1.85-1.78,2.79c-1.01,1.89-1.66,3.5-0.88,3.51c-5.92,9.94-9.88,20.97-11.49,32.33
								c-1.61,11.35-0.94,23.01,2.2,33.92c1.27,4.59,2.62,9.26,4.34,13.85c1.69,4.59,3.84,9.05,6.5,13.06
								c4.37,6.49,9.24,12.54,14.7,18.04c5.48,5.46,11.66,10.26,18.48,13.88c1.01,0.39,2.6,0.99,4.16,1.54
								c1.58,0.51,3.09,1.03,3.88,1.44c9.45,4.72,19.69,6.9,29.68,7.03c1.25,0.07,2.5-0.02,3.74-0.04l1.86-0.05
								c0.62-0.03,1.24-0.11,1.86-0.16l3.69-0.34c1.23-0.13,2.44-0.37,3.65-0.55c2.44-0.31,4.82-0.93,7.21-1.44
								c1.2-0.22,2.36-0.64,3.54-0.95c1.17-0.35,2.36-0.61,3.51-1.03c7.33-2.29,12.7-4.81,19.14-8.22c0.31-0.81,1.83-1.66,3.5-2.87
								c0.3-0.17,0.68-0.39,1.14-0.66c0.44-0.29,0.96-0.62,1.53-0.99c0.58-0.37,1.22-0.77,1.91-1.21c0.35-0.22,0.71-0.44,1.08-0.67
								c0.36-0.25,0.72-0.52,1.1-0.78c1.49-1.09,3.22-2.19,4.85-3.56c0.84-0.66,1.69-1.33,2.54-2.01c0.83-0.71,1.64-1.46,2.47-2.18
								c3.31-2.89,6.27-6.06,8.56-8.59c0.6-0.62,1.11-1.23,1.56-1.79c0.47-0.56,0.89-1.06,1.26-1.49c0.75-0.87,1.3-1.47,1.59-1.71
								c0.14-0.12-0.3,0.59-1.17,1.91c-0.44,0.66-0.99,1.48-1.63,2.44c-0.66,0.94-1.48,1.95-2.35,3.09
								c-3.51,4.52-8.85,10.23-14.98,15.05c-6.08,4.88-12.89,8.82-18.13,11.3c-1.32,0.61-2.52,1.17-3.58,1.67
								c-1.08,0.44-2.02,0.82-2.78,1.13c-1.51,0.63-2.32,1.01-2.16,1.04c0.19-0.02,0.94-0.26,2.12-0.66
								c0.59-0.21,1.29-0.45,2.08-0.73c0.8-0.26,1.65-0.62,2.58-1.03c0.93-0.4,1.92-0.84,2.98-1.3c1.06-0.43,2.11-1.05,3.22-1.61
								c2.25-1.08,4.51-2.5,6.81-3.87c1.14-0.7,2.22-1.5,3.33-2.24c0.55-0.38,1.09-0.75,1.63-1.12c0.53-0.38,1.03-0.8,1.54-1.19
								c1.01-0.79,2-1.55,2.94-2.29c0.9-0.79,1.76-1.54,2.57-2.25c1.65-1.38,2.96-2.73,4-3.75c1.03-1.02,1.79-1.71,2.09-2.05
								c-6.17,7.14-12.88,12.68-19.42,17c-6.56,4.31-12.98,7.35-18.9,9.57c-1.5,0.52-2.95,1.02-4.35,1.51
								c-1.44,0.4-2.83,0.79-4.17,1.17c-0.68,0.18-1.34,0.39-2,0.54c-0.66,0.14-1.32,0.28-1.96,0.41c-1.29,0.27-2.53,0.53-3.73,0.78
								c-2.42,0.33-4.67,0.74-6.77,0.94c-2.1,0.16-4.04,0.36-5.82,0.45c-7.13,0.34-11.68-0.18-14.11-0.29
								c-2.42-0.25-2.75-0.23-1.47,0.01c2.54,0.43,11.63,1.68,22.94,0.43c5.64-0.62,11.78-1.89,17.79-3.75
								c6.01-1.87,11.81-4.53,16.95-7.38c1.63-0.84,3.47-1.71,5.32-2.97c0.93-0.61,1.91-1.24,2.93-1.91c1-0.7,2-1.49,3.06-2.27
								c4.2-3.21,8.88-7.19,13.74-12.3c-2.72,3.19-7.03,7.95-11.45,11.93c-2.27,1.89-4.41,3.79-6.35,5.13
								c-0.96,0.69-1.82,1.31-2.55,1.83c-0.75,0.49-1.38,0.85-1.83,1.1c-1.03,0.6-1.99,1.16-2.89,1.68
								c-0.89,0.54-1.77,0.93-2.56,1.35c-0.8,0.42-1.54,0.8-2.24,1.16c-0.35,0.18-0.69,0.36-1.01,0.53
								c-0.34,0.15-0.66,0.3-0.97,0.44c-2.53,1.13-4.44,2.12-6.54,2.84c-1.04,0.39-2.1,0.78-3.28,1.19c-1.19,0.39-2.51,0.7-4.03,1.1
								c-0.76,0.19-1.57,0.41-2.45,0.6c-0.89,0.15-1.84,0.32-2.86,0.5c-1.03,0.17-2.12,0.37-3.31,0.53
								c-1.2,0.11-2.48,0.23-3.86,0.37c-4.53,0.4-9.89,0.61-15.63,0.36c-5.74-0.24-11.85-0.98-17.78-2.28
								c-11.9-2.54-22.87-7.62-29.57-11.85c3.71,1.87,10.05,4.63,16.98,6.75c6.93,2.18,14.4,3.71,20.16,4.85
								c-6.23-1.47-11.03-2.86-15.17-4.14c-1.05-0.28-2.02-0.66-3-0.95c-0.96-0.32-1.92-0.58-2.83-0.9
								c-0.92-0.32-1.81-0.62-2.7-0.93l-1.34-0.45l-1.31-0.51c-0.88-0.34-1.76-0.68-2.65-1.02c-0.9-0.34-1.76-0.77-2.68-1.17
								c-1.84-0.79-3.68-1.78-5.69-2.89c-3.94-2.31-8.4-5.35-13.32-10.11c-1.87-1.73-4.02-3.75-6.31-6
								c-0.94-1.21-1.87-2.36-2.79-3.61c-0.89-1.28-1.86-2.57-2.85-4.08c-3.33-4.53-6.15-9.21-8.64-13.96
								c-2.46-4.76-4.62-9.59-6.26-14.6c-1.67-5-2.96-10.12-3.83-15.39c-0.8-5.28-1.19-10.69-1.07-16.24
								c0.01,1.9-0.58,3.13-0.64,5.09c-0.06,4.82,0.26,9.5,1.08,14.01c0.34,2.27,0.91,4.48,1.43,6.69c0.27,1.1,0.63,2.18,0.94,3.27
								c0.32,1.09,0.64,2.18,1.04,3.24c0.38,1.07,0.77,2.14,1.15,3.22c0.42,1.06,0.87,2.12,1.31,3.18l0.66,1.6l0.74,1.57
								c0.5,1.05,0.98,2.12,1.51,3.17c2.13,4.21,4.56,8.41,7.33,12.7c2.06,3.36,6.15,7.08,8.89,10.12
								c5.59,6.19,10.79,11.56,17.02,16.41c-6.65-4.16-13.32-9.7-19.05-16.31c-2.93-3.25-5.55-6.81-8.03-10.43
								c-1.17-1.85-2.4-3.66-3.45-5.56c-0.53-0.94-1.1-1.87-1.6-2.82c-0.5-0.95-0.99-1.9-1.48-2.85c-0.87-1.54-1.77-3.27-2.76-4.87
								c-0.95-1.62-1.79-3.19-2.48-4.41c2.72,7.47,6.33,14.65,10.77,21.34c3.92,5.81,8.94,11.5,14.64,16.61
								c5.7,5.1,12.07,9.62,18.62,13.25c6.55,3.63,13.23,6.43,19.47,8.54c6.24,2.12,12.02,3.58,16.87,4.81
								c0.59,0.06,1.18,0.06,2.38,0.12c0.29,0.11,0.69,0.2,1.14,0.29c1.92,0.27,4.04,0.4,6.19,0.64c1.08,0.14,2.17,0.17,3.25,0.28
								c1.08,0.11,2.16,0.21,3.21,0.32c-1.79-0.02-3.57-0.12-5.36-0.18c-1.78-0.13-3.56-0.31-5.34-0.46
								c-14.02-0.31-29.05-4.77-42.35-12.69c-13.34-7.92-24.89-19.17-33.62-31.86c-0.97-1.4-2.09-3.06-3.06-4.96
								c-0.5-0.94-1.02-1.91-1.52-2.91c-0.46-1.02-0.93-2.05-1.4-3.08c-0.49-1.02-0.9-2.08-1.31-3.12
								c-0.42-1.03-0.83-2.05-1.23-3.03c-0.71-2-1.47-3.83-2.08-5.42c-1.86-4.66-3.22-9.56-4.3-14.55c-1.05-5-1.59-10.12-1.83-15.24
								c-0.17-5.13,0.09-10.26,0.69-15.32c0.7-5.05,1.71-10.03,3.14-14.83c5.05-17.35,14.6-33.18,27.44-45.31
								c12.77-12.17,28.62-20.83,45.4-24.65c16.75-3.92,34.25-3.16,50.12,1.84c15.89,4.98,30.05,14.23,40.78,26.13
								c1.08,1.03,2.12,2.1,3.15,3.15c-0.35-0.56-0.7-1.11-1.04-1.66c0.91,1.07,1.74,2.21,2.56,3.34
								c5.49,6.12,9.89,13.07,12.79,20.49c0.54,1.54-0.13,0.27-1.13-1.63c-0.48-0.96-1.13-2.03-1.72-3.01
								c-0.3-0.48-0.59-0.94-0.86-1.34c-0.28-0.38-0.55-0.71-0.76-0.94c0.45,0.77,0.86,1.57,1.16,2.17c0.3,0.6,0.51,1,0.51,1
								s-0.42-0.15-0.85-0.29c0.79,1.12,0.9,1.98,1.13,2.94c-4.08-7.65-9.26-14.76-15.4-20.95c-3.06-3.11-6.34-6-9.8-8.67
								c-3.48-2.64-7.16-5.04-10.98-7.18c1.41,1.59,5.81,4.25,7.74,5.75c4.8,3.17,9.31,6.85,12.78,10.81
								c1.32,1.27,2.51,2.68,3.73,4.06c1.14,1.44,2.33,2.86,3.37,4.39c2.16,3,4.05,6.19,5.72,9.46c3.38,6.53,5.74,13.4,7.53,20.09
								c0.21,1.27,0.42,2.53,0.63,3.78c0.13,1.26,0.26,2.5,0.39,3.73c0.05,0.85-0.05,1.07-0.25,0.83c-0.1-0.12-0.22-0.35-0.36-0.68
								c-0.14-0.3-0.3-0.67-0.46-1.1C215.33,89.43,214.49,86.73,213.88,84.28z M42.68,67.94c2.59-4.62,5.55-8.82,8.89-12.91
								c1.14-1.47,2.19-2.98,3.4-4.4c0.75-0.87,1.49-1.8,2.24-2.76c0.79-0.93,1.58-1.9,2.37-2.9c3.48-3.53,7.18-6.79,11.1-9.74
								c3.94-2.92,8.08-5.54,12.36-7.85c-8.88,4.06-17.88,9.74-26.22,19.23C62.11,40.42,68,35.13,74.34,30.9
								c6.33-4.25,13.02-7.55,19.87-9.98c13.75-4.8,28.07-6.07,42.23-4.47c8.58,0.75,17.17,2.54,25.47,5.62
								c5.88,2.1,11.47,4.6,16.72,7.6c-7.97-5.22-16.76-9.27-26.03-11.89c-9.28-2.57-19.01-3.8-28.78-3.46
								c-19.53,0.57-39.2,7.43-55.19,19.82C52.6,46.42,40.21,64.07,34.28,84.17c-5.96,20.05-5.49,42.36,2.02,62.63
								c-4.28-13.29-5.83-27.04-4.75-40.44C32.6,92.96,36.32,79.83,42.68,67.94z M39.79,77.28c-1.86,4.99-3.21,10.13-4.14,15.31
								c-0.93,5.18-1.48,10.41-1.5,15.61c-0.2,7.07,0.37,14.34,1.75,21.39c1.39,7.05,3.6,13.85,6.4,20.04
								c5.58,12.42,13.55,22.14,20.54,27.9c-8.79-8.6-16.13-19.12-21.16-30.97c-5.04-11.83-7.71-24.99-7.53-38.35
								c-0.09,1.59-0.03,3.01-0.02,4.26c0.03,1.25,0.01,2.34,0.1,3.27c0.13,1.86,0.21,3.09,0.26,3.75c0.11,1.32,0.04,0.34-0.13-2.5
								c-0.04-0.71-0.11-1.53-0.14-2.47c-0.01-0.94-0.03-1.98-0.04-3.13c-0.04-1.15-0.01-2.4,0.05-3.74
								c0.06-1.34,0.06-2.78,0.22-4.31c0.43-6.09,1.57-13.59,4.01-21.75C38.58,80.82,39.13,79.24,39.79,77.28z"/>
							<path class="st4" d="M165.83,19.45c10.41,5.04,19.94,11.91,27.6,20.12c-2.57-3.52-5.06-6.52-8.91-10
								c-5.3-4.55-11.79-8.41-18.77-11.43c-3.5-1.47-7.1-2.82-10.78-3.86c-1.82-0.59-3.68-1-5.52-1.49c-1.85-0.4-3.7-0.85-5.54-1.18
								c-10.6-2.09-21.78-2.24-32.87-0.5c-11.09,1.78-22.03,5.64-32.11,11.34c-10.06,5.74-19.21,13.36-26.86,22.42
								C44.4,53.9,38.37,64.49,34.3,75.86c-0.42,1.11-1.14,2.89-1.69,4.93c-0.29,1.01-0.59,2.08-0.86,3.13
								c-0.23,1.07-0.43,2.12-0.6,3.1c3.76-14.78,10.66-28.42,20-39.76c9.31-11.35,20.87-20.56,33.73-26.74
								c12.84-6.22,26.89-9.5,40.81-9.63c3.48-0.03,6.95,0.13,10.4,0.45c1.72,0.21,3.44,0.39,5.15,0.66
								c1.7,0.31,3.41,0.54,5.09,0.95C153.07,14.41,159.64,16.53,165.83,19.45z"/>
							<path class="st4" d="M41.13,163.09c4.66,7.72,10.43,14.65,16.34,20.84c-1.2-1.54-2.63-3.12-3.96-4.9
								c-0.68-0.87-1.38-1.76-2.09-2.67c-0.68-0.93-1.36-1.87-2.05-2.81c-0.71-0.93-1.36-1.91-2.01-2.88
								c-0.64-0.98-1.33-1.92-1.93-2.9c-1.21-1.96-2.43-3.85-3.43-5.73c-3.01-5.15-5.6-10.57-7.68-16.16
								c-2.06-5.6-3.62-11.36-4.67-17.17c0.78,5.86,2.08,11.72,3.97,17.49C35.52,151.97,38.02,157.63,41.13,163.09z"/>
							<path class="st4" d="M31.15,87.03l-0.46,1.77l-0.38,1.79c-0.25,1.2-0.49,2.4-0.74,3.61c-1.94,11.13-2.07,22.91,0.07,34.52
								c-1.67-12.38-0.95-24.74,1.69-36.74c-0.32-0.04-0.47-0.59-0.5-1.48c-0.01-0.44,0-0.97,0.04-1.56
								C30.94,88.35,31.04,87.71,31.15,87.03z"/>
						</g>
					</g>
				</g>
			</g>
		</g>
	</g>
</g>
</svg>
